<svg width="16" height="346" viewBox="0 0 16 346" fill="none" xmlns="http://www.w3.org/2000/svg">
<g clip-path="url(#clip0_239_111)">
<path d="M3.96906 86.0625H6.78531C7.39159 86.0628 7.98963 85.9221 8.53216 85.6515C9.0747 85.3808 9.54685 84.9877 9.91132 84.5033C10.2758 84.0188 10.5226 83.4561 10.6322 82.8598C10.7418 82.2635 10.7112 81.6499 10.5428 81.0675C10.9272 80.9137 11.2825 80.7047 11.6003 80.4506L13.2756 82.1241C13.3636 82.212 13.483 82.2613 13.6074 82.2612C13.7318 82.2611 13.851 82.2116 13.9389 82.1236C14.0268 82.0356 14.0761 81.9162 14.076 81.7919C14.076 81.6675 14.0265 81.5482 13.9384 81.4603L12.2641 79.7878C12.7601 79.1675 13.0708 78.4197 13.1605 77.6306C13.2502 76.8414 13.1152 76.043 12.771 75.3272C12.4269 74.6114 11.8876 74.0074 11.2153 73.5846C10.5429 73.1618 9.76485 72.9375 8.97062 72.9375H5.905C5.26938 72.9375 4.75469 73.4531 4.75469 74.0878V77.1534C4.75469 77.6841 4.85219 78.1903 5.03031 78.6572C4.38212 78.9826 3.83724 79.4819 3.45661 80.0993C3.07598 80.7167 2.8746 81.4278 2.875 82.1531L2.875 84.9684C2.875 85.5722 3.36531 86.0625 3.96906 86.0625ZM11.5956 79.1203L9.29594 76.8216C9.20792 76.7337 9.08859 76.6843 8.9642 76.6844C8.83981 76.6845 8.72055 76.734 8.63266 76.822C8.58914 76.8656 8.55462 76.9173 8.53109 76.9743C8.50757 77.0312 8.49548 77.0922 8.49552 77.1538C8.49561 77.2782 8.54511 77.3974 8.63313 77.4853L10.9319 79.7812C10.4443 80.145 9.86524 80.3661 9.2593 80.4196C8.65336 80.4732 8.04446 80.3571 7.50069 80.0845C6.95692 79.8118 6.4997 79.3933 6.18016 78.8756C5.86061 78.358 5.69134 77.7617 5.69125 77.1534V74.0869C5.69125 73.9697 5.78688 73.8741 5.90406 73.8741H8.97062C9.57948 73.874 10.1763 74.0435 10.6943 74.3635C11.2123 74.6834 11.631 75.1413 11.9035 75.6858C12.176 76.2303 12.2915 76.8399 12.2371 77.4463C12.1828 78.0527 11.9606 78.6321 11.5956 79.1194V79.1203ZM3.8125 82.1522C3.81235 81.5991 3.96654 81.057 4.2577 80.5868C4.54887 80.1166 4.96546 79.737 5.46063 79.4906C5.90524 80.1576 6.5301 80.6846 7.2625 81.0103L5.82438 82.4503C5.78085 82.4939 5.74634 82.5456 5.72281 82.6025C5.69928 82.6595 5.6872 82.7205 5.68724 82.782C5.68728 82.8436 5.69946 82.9046 5.72307 82.9615C5.74668 83.0184 5.78126 83.0701 5.82484 83.1136C5.86843 83.1571 5.92015 83.1916 5.97707 83.2152C6.03399 83.2387 6.09499 83.2508 6.15658 83.2507C6.21817 83.2507 6.27915 83.2385 6.33604 83.2149C6.39293 83.1913 6.4446 83.1567 6.48813 83.1131L8.28438 81.315C8.73257 81.3883 9.18963 81.3893 9.63812 81.3178C9.76792 81.761 9.79266 82.2283 9.71036 82.6827C9.62807 83.1371 9.44102 83.5661 9.16405 83.9356C8.88708 84.3051 8.5278 84.605 8.11473 84.8114C7.70167 85.0179 7.24617 85.1253 6.78438 85.125L3.96813 85.1259C3.92676 85.1252 3.88732 85.1083 3.85823 85.0789C3.82915 85.0495 3.81274 85.0098 3.8125 84.9684L3.8125 82.1522Z" fill="#4F501D" fill-opacity="0.18"/>
<line x1="7.5" y1="389" x2="7.5" y2="90" stroke="#4F501D" stroke-opacity="0.18"/>
<line x1="7.5" y1="69" x2="7.5" y2="-11" stroke="#4F501D" stroke-opacity="0.18"/>
</g>
<defs>
<clipPath id="clip0_239_111">
<rect width="400" height="16" fill="white" transform="matrix(0 -1 1 0 0 389)"/>
</clipPath>
</defs>
</svg>
