<svg width="375" height="12" viewBox="0 0 375 12" fill="none" xmlns="http://www.w3.org/2000/svg">
<line x1="4.37114e-08" y1="5.5" x2="172" y2="5.50002" stroke="#4F501D" stroke-opacity="0.3"/>
<path d="M181 1.09406V3.91031C181 4.51659 181.14 5.11463 181.411 5.65716C181.682 6.1997 182.075 6.67185 182.559 7.03632C183.044 7.40078 183.606 7.64757 184.203 7.75717C184.799 7.86677 185.413 7.83618 185.995 7.66781C186.149 8.05219 186.358 8.4075 186.612 8.72531L184.938 10.4006C184.851 10.4886 184.801 10.608 184.801 10.7324C184.801 10.8568 184.851 10.976 184.939 11.0639C185.027 11.1518 185.146 11.2011 185.271 11.201C185.395 11.201 185.514 11.1515 185.602 11.0634L187.275 9.38906C187.895 9.88506 188.643 10.1958 189.432 10.2855C190.221 10.3752 191.019 10.2402 191.735 9.89604C192.451 9.55191 193.055 9.01262 193.478 8.34027C193.901 7.66793 194.125 6.88985 194.125 6.09562V3.03C194.125 2.39438 193.609 1.87969 192.975 1.87969H189.909C189.378 1.87969 188.872 1.97719 188.405 2.15531C188.08 1.50712 187.581 0.962243 186.963 0.58161C186.346 0.200977 185.635 -0.000400181 184.909 5.97051e-07H182.094C181.49 5.97051e-07 181 0.490313 181 1.09406ZM187.942 8.72063L190.241 6.42094C190.329 6.33292 190.378 6.21359 190.378 6.0892C190.378 5.96481 190.328 5.84555 190.24 5.75766C190.197 5.71414 190.145 5.67962 190.088 5.65609C190.031 5.63257 189.97 5.62048 189.909 5.62052C189.784 5.62061 189.665 5.67011 189.577 5.75813L187.281 8.05688C186.917 7.56935 186.696 6.99024 186.643 6.3843C186.589 5.77836 186.705 5.16946 186.978 4.62569C187.251 4.08192 187.669 3.6247 188.187 3.30516C188.704 2.98561 189.301 2.81634 189.909 2.81625H192.976C193.093 2.81625 193.188 2.91188 193.188 3.02906V6.09562C193.188 6.70448 193.019 7.30134 192.699 7.81933C192.379 8.33733 191.921 8.75601 191.377 9.0285C190.832 9.30098 190.223 9.41651 189.616 9.36213C189.01 9.30776 188.43 9.08563 187.943 8.72063H187.942ZM184.91 0.9375C185.463 0.937354 186.005 1.09154 186.476 1.3827C186.946 1.67387 187.326 2.09046 187.572 2.58563C186.905 3.03024 186.378 3.6551 186.052 4.3875L184.612 2.94938C184.569 2.90585 184.517 2.87134 184.46 2.84781C184.403 2.82428 184.342 2.8122 184.28 2.81224C184.219 2.81228 184.158 2.82446 184.101 2.84807C184.044 2.87168 183.992 2.90626 183.949 2.94984C183.905 2.99343 183.871 3.04515 183.847 3.10207C183.824 3.15899 183.812 3.21999 183.812 3.28158C183.812 3.34317 183.824 3.40415 183.848 3.46104C183.871 3.51793 183.906 3.5696 183.949 3.61313L185.748 5.40938C185.674 5.85757 185.673 6.31463 185.745 6.76312C185.302 6.89292 184.834 6.91766 184.38 6.83536C183.925 6.75307 183.496 6.56602 183.127 6.28905C182.757 6.01208 182.458 5.6528 182.251 5.23973C182.045 4.82667 181.937 4.37117 181.938 3.90938L181.937 1.09313C181.937 1.05176 181.954 1.01232 181.984 0.983234C182.013 0.954153 182.053 0.937739 182.094 0.9375H184.91Z" fill="#4F501D" fill-opacity="0.3"/>
<line x1="203" y1="5.5" x2="375" y2="5.5" stroke="#4F501D" stroke-opacity="0.3"/>
</svg>
