<?xml version="1.0" encoding="UTF-8"?>
<svg id="Layer_1" data-name="Layer 1" xmlns="http://www.w3.org/2000/svg" viewBox="0 0 2500 2500">
  <defs>
    <style>
      .cls-1 {
        fill: #bb66a5;
      }
    </style>
  </defs>
  <g>
    <path d="m1958.66,1258.61l2.97,40.25h0c1.31,17.7-4.93,33.23-14.72,39.38,7.46-.25,15.12,2.54,20.95,8.37h0s19.71,19.71,19.71,19.71c-10.43,10.43-27.7,10.06-38.58-.83h0s-9.69-9.69-9.69-9.69l-9.31-9.31c-1.23.41-2.46.82-3.71,1.22-9.58,3.11-19.49,6.32-28.55,15.38-20.7,20.7-12.46,52.23-12.61,52.78l-10.9-6.3c.62-2.31-3.04-29.16,18.9-51.1,10.16-10.16,21.31-13.78,31.15-16.97,5.22-1.69,9.96-3.23,14.13-5.51l-1.14-15.44-1.46-19.79c-1.64-22.23,8.6-41.1,22.86-42.16Z"/>
    <path d="m1970.44,1330.59l-3.29-.51.59-3.28c.04-.2,3.64-20.4,6.37-33.63.91-4.42,3.11-7.77,6.54-9.96,6.71-4.28,15.65-2.25,16.03-2.16l3.24.76-2.97,11.51,15.15.72-12.7,14.35c4.17.97,8.9,2.89,10.28,6.62.74,1.99.82,5.16-3,8.98-10.46,10.46-35.18,6.77-36.22,6.61Z"/>
  </g>
  <g>
    <path d="m541.34,1258.61l-2.97,40.25h0c-1.31,17.7,4.93,33.23,14.72,39.38-7.46-.25-15.12,2.54-20.95,8.37h0s-19.71,19.71-19.71,19.71c10.43,10.43,27.7,10.06,38.58-.83h0s9.69-9.69,9.69-9.69l9.31-9.31c1.23.41,2.46.82,3.71,1.22,9.58,3.11,19.49,6.32,28.55,15.38,20.7,20.7,12.46,52.23,12.61,52.78l10.9-6.3c-.62-2.31,3.04-29.16-18.9-51.1-10.16-10.16-21.31-13.78-31.15-16.97-5.22-1.69-9.96-3.23-14.13-5.51l1.14-15.44,1.46-19.79c1.64-22.23-8.6-41.1-22.86-42.16Z"/>
    <path d="m529.56,1330.59l3.29-.51-.59-3.28c-.04-.2-3.64-20.4-6.37-33.63-.91-4.42-3.11-7.77-6.54-9.96-6.71-4.28-15.65-2.25-16.03-2.16l-3.24.76,2.97,11.51-15.15.72,12.7,14.35c-4.17.97-8.9,2.89-10.28,6.62-.74,1.99-.82,5.16,3,8.98,10.46,10.46,35.18,6.77,36.22,6.61Z"/>
  </g>
  <path d="m1252.53,1885.34c-139.74,0-272.32-44.49-383.39-128.67-107.48-81.45-187.67-197.13-225.81-325.72l17.29-5.13c77.09,259.94,320.49,441.48,591.9,441.48s514.26-181.17,591.63-440.57l17.28,5.16c-38.29,128.36-118.52,243.81-225.91,325.07-111,83.99-243.44,128.38-383.01,128.38Z"/>
  <path d="m1848.04,1086.83c-73.09-267.39-317.97-454.13-595.51-454.13s-522.42,186.75-595.51,454.13l-17.4-4.76c75.23-275.21,327.27-467.42,612.91-467.42s537.68,192.21,612.91,467.42l-17.4,4.76Z"/>
  <g>
    <path d="m1434.08,865.31c39.88,7.33,71.63,17.92,95.26,31.76,7.33,3.26,12,6.71,14.04,10.38,2.02,3.67,3.45,9.98,4.27,18.92l13.43,136.78c0,2.45-2.04,3.87-6.11,4.27-4.08.42-6.52-.61-7.33-3.05-17.92-62.69-51.1-108.88-99.53-138.61-48.45-29.71-108.5-44.58-180.13-44.58-61.88,0-116.02,13.64-162.43,40.91-46.41,27.29-82.24,65.76-107.47,115.41-25.25,49.66-37.86,107.06-37.86,172.2,0,75.72,15.67,145.74,47.02,210.05,31.33,64.33,73.68,115.22,127.01,152.66,53.32,37.46,110.93,56.18,172.81,56.18,58.62,0,109.49-16.07,152.65-48.24,43.14-32.16,76.12-81.61,98.93-148.38,0-2.45,1.62-3.67,4.88-3.67,2.45,0,4.68.42,6.72,1.22,2.02.82,3.05,2.04,3.05,3.67l-17.1,138c-1.64,9.77-3.47,16.09-5.5,18.93-2.04,2.86-6.71,5.92-14.04,9.15-73.27,30.95-150.63,46.41-232.04,46.41-97.7,0-179.33-19.73-244.86-59.23-65.55-39.48-113.79-89.76-144.72-150.82-30.95-61.07-46.41-125.37-46.41-192.96,0-74.9,20.76-142.07,62.28-201.51,41.52-59.41,96.48-105.43,164.87-138,68.39-32.56,141.66-48.85,219.83-48.85,39.08,0,78.56,3.67,118.46,10.99Z"/>
    <path class="cls-1" d="m1428,1238.91c-85.3,0-154.45-69.15-154.45-154.45,0,85.3-69.15,154.45-154.45,154.45,85.3,0,154.45,69.15,154.45,154.45,0-85.3,69.15-154.45,154.45-154.45Z"/>
  </g>
  <g>
    <path d="m625.91,1299.4c-.18-.35-.18-.71,0-1.06l7.42-8.08c7.33-7.86,13.33-14.48,18.01-19.87,4.68-5.38,8.83-11.01,12.45-16.89,3.62-5.87,5.87-11.46,6.75-16.76.27-1.5.4-2.91.4-4.24,0-3.62-.99-6.53-2.98-8.74-1.99-2.21-4.92-3.31-8.81-3.31s-7.79,1.35-11.19,4.04c-3.4,2.69-6.25,6.47-8.54,11.32-.18.18-.35.26-.53.26-.26,0-.49-.09-.66-.26-.18-.18-.22-.4-.13-.66,2.39-6.27,5.72-11.08,10-14.44,4.28-3.35,9.12-5.03,14.5-5.03,4.94,0,8.74,1.41,11.39,4.24,2.65,2.83,3.97,6.58,3.97,11.26,0,1.32-.13,2.74-.4,4.24-.88,5.03-3.18,10.42-6.89,16.16-3.71,5.74-7.75,11.04-12.12,15.89-4.37,4.86-9.6,10.38-15.69,16.55-4.42,4.42-7.5,7.68-9.27,9.8-.35.35-.49.55-.4.6.09.05.31.07.66.07,10.68,0,18.23-.15,22.65-.46,4.41-.31,7.64-1.08,9.67-2.32,2.03-1.24,3.35-3.35,3.97-6.36,0-.27.22-.4.66-.4.27,0,.51.07.73.2s.29.29.2.46l-2.52,13.11c-.09.26-.24.53-.46.8-.22.26-.51.4-.86.4h-41.19c-.35,0-.62-.18-.8-.53Z"/>
    <path d="m692.66,1293.78c-3.27-5.25-4.9-12.29-4.9-21.12,0-4.68.44-9.4,1.32-14.17,1.41-8.21,3.77-15.58,7.09-22.12,3.31-6.53,7.17-11.63,11.59-15.3,4.42-3.66,8.92-5.5,13.51-5.5,5.56,0,9.93,2.63,13.11,7.88,3.18,5.25,4.77,12.3,4.77,21.12,0,4.59-.44,9.36-1.32,14.3-1.5,8.3-3.86,15.69-7.09,22.18-3.22,6.49-7,11.54-11.32,15.17-4.33,3.62-8.83,5.43-13.51,5.43-5.56,0-9.98-2.62-13.24-7.88Zm28.41-4.3c3.84-7.06,6.82-16.73,8.94-29,1.32-7.59,1.99-14.13,1.99-19.6,0-7.77-1.11-13.68-3.31-17.75-2.21-4.06-5.12-6.09-8.74-6.09-5.12,0-9.76,3.75-13.91,11.26-4.15,7.51-7.28,17.26-9.4,29.27-1.15,6.36-1.72,12.36-1.72,18.01,0,7.59,1.1,13.57,3.31,17.94,2.2,4.37,5.34,6.56,9.4,6.56,5.12,0,9.6-3.53,13.44-10.6Z"/>
  </g>
  <g>
    <path d="m1777.73,1300.2c-.18-.35-.18-.71,0-1.06l7.42-8.08c7.33-7.86,13.33-14.48,18.01-19.87,4.68-5.38,8.83-11.01,12.45-16.89,3.62-5.87,5.87-11.46,6.75-16.76.27-1.5.4-2.91.4-4.24,0-3.62-.99-6.53-2.98-8.74-1.99-2.21-4.92-3.31-8.81-3.31s-7.8,1.35-11.19,4.04c-3.4,2.69-6.25,6.47-8.55,11.32-.18.18-.35.26-.53.26-.27,0-.49-.09-.66-.26-.18-.18-.22-.4-.13-.66,2.38-6.27,5.72-11.08,10-14.44,4.28-3.35,9.12-5.03,14.5-5.03,4.94,0,8.74,1.41,11.39,4.24,2.65,2.83,3.97,6.58,3.97,11.26,0,1.32-.13,2.74-.4,4.24-.88,5.03-3.18,10.42-6.88,16.16-3.71,5.74-7.75,11.04-12.12,15.89-4.37,4.86-9.6,10.38-15.69,16.55-4.42,4.42-7.51,7.68-9.27,9.8-.36.35-.49.55-.4.6.09.05.31.07.66.07,10.68,0,18.23-.15,22.65-.46,4.41-.31,7.64-1.08,9.67-2.32,2.03-1.24,3.35-3.35,3.97-6.36,0-.27.22-.4.66-.4.27,0,.51.07.73.2.22.13.29.29.2.46l-2.52,13.11c-.09.26-.24.53-.46.8-.22.26-.51.4-.86.4h-41.19c-.35,0-.62-.18-.8-.53Z"/>
    <path d="m1831.37,1300.2c-.17-.35-.17-.71,0-1.06l7.42-8.08c7.33-7.86,13.33-14.48,18.01-19.87,4.68-5.38,8.83-11.01,12.45-16.89,3.62-5.87,5.87-11.46,6.75-16.76.27-1.5.4-2.91.4-4.24,0-3.62-.99-6.53-2.98-8.74-1.99-2.21-4.92-3.31-8.81-3.31s-7.8,1.35-11.19,4.04c-3.4,2.69-6.25,6.47-8.55,11.32-.18.18-.35.26-.53.26-.27,0-.49-.09-.66-.26-.18-.18-.22-.4-.13-.66,2.38-6.27,5.72-11.08,10-14.44,4.28-3.35,9.12-5.03,14.5-5.03,4.94,0,8.74,1.41,11.39,4.24,2.65,2.83,3.97,6.58,3.97,11.26,0,1.32-.13,2.74-.4,4.24-.88,5.03-3.18,10.42-6.88,16.16-3.71,5.74-7.75,11.04-12.12,15.89-4.37,4.86-9.6,10.38-15.69,16.55-4.42,4.42-7.51,7.68-9.27,9.8-.36.35-.49.55-.4.6.09.05.31.07.66.07,10.68,0,18.23-.15,22.65-.46,4.41-.31,7.64-1.08,9.67-2.32,2.03-1.24,3.35-3.35,3.97-6.36,0-.27.22-.4.66-.4.27,0,.51.07.73.2.22.13.29.29.2.46l-2.52,13.11c-.09.26-.24.53-.46.8-.22.26-.51.4-.86.4h-41.19c-.35,0-.62-.18-.8-.53Z"/>
  </g>
  <g>
    <path d="m1893.14,1148.36c-1.36.16-2.75.28-4.24.28-3.44,0-7.22-.47-11.28-1.52-2.48-.65-4.66-1.4-6.62-2.23.09,5.45,1.54,10.55,8,16.55,7.97,7.41,16.33,8.61,20.99,6.38,1.8-4.59.23-12.31-6.85-19.45Z"/>
    <path d="m1884.91,1119.07c1.11.29,2.16.61,3.19.95,10.11-7.86,13.63-17.37,12.31-23.72-5.82-4.11-17.44-4.42-29.99,3.81-11.9,7.8-14.19,15.52-15.28,24.51,7.55-5.39,15.25-9.33,29.77-5.56Z"/>
    <path d="m1906.27,1139.6c-1.07-6.35-8.29-14.58-21.98-18.14-13.56-3.53-20.49,0-27.78,5.21,3.83,8.1,8.16,14.55,21.72,18.08,13.69,3.57,24-.11,28.03-5.14Z"/>
  </g>
  <g>
    <path d="m615.62,1148.36c1.36.16,2.75.28,4.24.28,3.44,0,7.22-.47,11.28-1.52,2.48-.65,4.66-1.4,6.62-2.23-.09,5.45-1.54,10.55-8,16.55-7.97,7.41-16.33,8.61-20.99,6.38-1.8-4.59-.23-12.31,6.85-19.45Z"/>
    <path d="m623.85,1119.07c-1.11.29-2.16.61-3.19.95-10.11-7.86-13.63-17.37-12.31-23.72,5.82-4.11,17.44-4.42,29.99,3.81,11.9,7.8,14.19,15.52,15.28,24.51-7.55-5.39-15.25-9.33-29.77-5.56Z"/>
    <path d="m602.49,1139.6c1.07-6.35,8.29-14.58,21.98-18.14,13.56-3.53,20.49,0,27.78,5.21-3.83,8.1-8.16,14.55-21.72,18.08-13.69,3.57-24-.11-28.03-5.14Z"/>
  </g>
</svg>