<svg xmlns="http://www.w3.org/2000/svg" data-name="Layer 1" viewBox="0 0 2500 2500"><path d="M1786.5 1433.37V707.29s-.09-11.47-.27-22.24c-.15-8.83-1.53-31.6-2.53-39.59-19.62-157.52-141.01-284.91-295.21-309.79-11.07-1.78-31.65-4.12-53.22-4.82-19.47-.64-48.67-.57-52.08-.56h-266.18c-3.41 0-32.61-.08-52.08.56-21.57.71-42.15 3.04-53.22 4.82-154.2 24.88-275.59 152.26-295.21 309.79-1 7.98-2.38 30.76-2.53 39.59-.18 10.77-.27 22.24-.27 22.24v726.08c0 1.7-.03 9.82.13 19.87.15 8.81 1.53 31.58 2.53 39.6 19.62 157.52 141.1 284.41 295.2 309.78 17.93 2.95 89.21 5.4 100.31 5.4H1388.3c11.1 0 82.38-2.44 100.31-5.39 154.11-25.37 275.58-152.26 295.2-309.78 1-8.02 2.38-30.79 2.53-39.6.17-10.05.14-18.17.13-19.87Z" style="fill:#bfd400"/><path d="M1621.4 2255c-.76.09-1.55.16-2.38.16-1.93 0-4.06-.26-6.34-.85-1.39-.36-2.62-.79-3.72-1.25.05 3.06.87 5.93 4.49 9.3 4.48 4.16 9.17 4.84 11.79 3.58 1.01-2.58.13-6.92-3.85-10.93ZM1616.77 2238.55c.62.16 1.22.34 1.79.54 5.68-4.42 7.66-9.76 6.91-13.33-3.27-2.31-9.8-2.48-16.85 2.14-6.69 4.39-7.97 8.72-8.58 13.77 4.24-3.03 8.57-5.24 16.73-3.12Z"/><path d="M1628.77 2250.08c-.6-3.57-4.66-8.19-12.35-10.19-7.62-1.98-11.51 0-15.61 2.93 2.15 4.55 4.58 8.18 12.2 10.16 7.69 2 13.49-.06 15.75-2.89ZM925.13 2277.27c-2.09-2.89-3.14-6.5-3.14-10.81 0-1.93.19-3.79.58-5.6.71-3.8 2.17-7.14 4.39-10.04 2.22-2.89 4.81-5.12 7.77-6.66s5.89-2.32 8.78-2.32c2.32 0 4.33.48 6.03 1.45 1.7.96 2.56 2.28 2.56 3.96 0 1.22-.32 2.21-.96 2.94-.64.74-1.58 1.11-2.8 1.11-1.99 0-3.28-1.19-3.86-3.57-.77-2.38-2.32-3.57-4.63-3.57-2.7 0-4.94 1.26-6.71 3.76-1.77 2.51-3.01 5.79-3.71 9.84-.39 2.12-.58 4.18-.58 6.18 0 4.12.87 7.46 2.61 10.04s4.34 3.86 7.82 3.86c3.15 0 6.37-1.32 9.65-3.96l.19-.1c.19 0 .37.13.53.39.16.26.18.45.05.58-4.95 4.57-9.97 6.85-15.05 6.85-4.25 0-7.42-1.45-9.5-4.34ZM988.81 2242.87c1.96-.8 4.13-1.21 6.51-1.21s4.44.71 5.98 2.12c1.54 1.42 2.32 3.25 2.32 5.5 0 2.7-1.09 5.11-3.28 7.24-2.19 2.12-5.02 3.47-8.49 4.05l.39-.77c3.47-.26 6.13.31 7.96 1.69 1.83 1.39 2.75 3.3 2.75 5.74 0 .39-.06 1.03-.19 1.93-.71 3.54-2.74 6.46-6.08 8.78-3.35 2.32-7.08 3.47-11.19 3.47-2.89 0-5.2-.51-6.9-1.54-1.7-1.03-2.56-2.35-2.56-3.96 0-.96.3-1.78.92-2.46.61-.67 1.46-1.01 2.56-1.01.84 0 1.5.26 1.98.77.48.52.98 1.29 1.5 2.32.71 1.16 1.5 2.06 2.36 2.7.87.64 2.11.96 3.72.96 2.38 0 4.23-.95 5.55-2.85 1.32-1.9 1.98-4.23 1.98-7 0-2.51-.72-4.53-2.17-6.08-1.45-1.55-3.56-2.32-6.32-2.32-.32 0-.48-.19-.48-.58s.16-.58.48-.58c6.18-.19 9.26-3.22 9.26-9.07 0-1.87-.53-3.31-1.59-4.34-1.06-1.03-2.4-1.55-4-1.55-4.7 0-8.4 2.8-11.1 8.4 0 .13-.1.19-.29.19s-.39-.08-.58-.24c-.19-.16-.26-.34-.19-.53l3.96-10.9c0-.13.1-.19.29-.19s.4.06.63.19c.22.13.3.26.24.39-.07.19-.1.42-.1.67 0 .39.1.69.29.92.19.23.42.34.67.34.19 0 1.27-.4 3.23-1.21ZM1011 2279.83c-1.06-1.19-1.59-3.01-1.59-5.45 0-.58.06-1.51.19-2.8.64-4.44 2.36-8.99 5.16-13.65 2.8-4.66 6.1-8.51 9.89-11.53 3.8-3.02 7.37-4.54 10.71-4.54 2.06 0 3.91.58 5.55 1.74 1.64 1.16 2.56 2.86 2.75 5.11l-4.63-2.8c.9-.13 1.91-.66 3.04-1.59 1.12-.93 1.91-2.01 2.36-3.23.13-.13.26-.19.39-.19.19 0 .39.05.58.15.19.1.26.18.19.24l-5.6 30.49c-.19 1.03-.29 1.9-.29 2.61 0 1.8.51 2.7 1.54 2.7 1.41 0 3.44-1.38 6.08-4.15.06-.06.16-.1.29-.1.19 0 .35.11.48.34.13.23.13.4 0 .53-2.12 2.51-4.05 4.39-5.79 5.64-1.74 1.26-3.41 1.88-5.02 1.88-1.29 0-2.24-.39-2.85-1.16-.61-.77-.92-1.99-.92-3.67 0-1.03.16-2.57.48-4.63l2.32-13.51 1.83-1.64c-1.8 4.95-3.97 9.31-6.51 13.07-2.54 3.76-5.23 6.69-8.06 8.78-2.83 2.09-5.53 3.14-8.11 3.14-1.93 0-3.43-.6-4.49-1.79Zm15.73-7.09c2.41-2.25 4.57-5.08 6.47-8.49 1.9-3.41 3.17-6.72 3.81-9.94.19-.9.29-1.74.29-2.51 0-1.8-.48-3.26-1.45-4.39-.96-1.13-2.32-1.69-4.05-1.69-2.12 0-4.28.89-6.47 2.65-2.19 1.77-4.12 4.23-5.79 7.38-1.67 3.15-2.8 6.63-3.38 10.42-.26 2.06-.39 3.41-.39 4.05 0 3.92 1.35 5.89 4.05 5.89 2.19 0 4.49-1.13 6.9-3.38ZM1056.55 2277.51c-2.41-2.8-3.62-7.09-3.62-12.88 0-2.64.29-5.63.87-8.97 2.19-12.61 5.9-21.89 11.15-27.84 5.24-5.95 10.95-9.7 17.13-11.24.39-.13 1.54-.47 3.47-1.01 1.93-.54 3.52-1.25 4.78-2.12 1.25-.87 2.11-1.88 2.56-3.04.13-.13.23-.19.29-.19.19 0 .35.05.48.14.13.1.22.18.29.24-.96 3.41-1.99 5.95-3.09 7.62-1.1 1.67-2.41 2.86-3.96 3.57-1.54.71-3.92 1.42-7.14 2.12-4.57.96-8.06 2.11-10.47 3.43s-4.25 3.1-5.5 5.35c-1.25 2.25-2.24 5.44-2.94 9.55-.71 4.25-1.32 10.39-1.83 18.43l-3.18-1.93c4.37-10.68 10.74-16.02 19.11-16.02 4.57 0 7.94 1.45 10.13 4.34 2.19 2.89 3.28 6.43 3.28 10.61 0 1.54-.13 2.96-.39 4.25-.71 3.86-2.19 7.3-4.44 10.32-2.25 3.02-4.92 5.36-8.01 7-3.09 1.64-6.21 2.46-9.36 2.46-3.99 0-7.19-1.4-9.6-4.2Zm19.59-1.93c2.22-2.73 3.78-6.61 4.68-11.63.39-2.32.58-4.5.58-6.56 0-3.99-.76-7.14-2.27-9.46-1.51-2.32-3.55-3.47-6.13-3.47-3.22 0-5.92 1.53-8.11 4.58-2.19 3.06-3.63 6.67-4.34 10.86-.39 2.31-.58 4.47-.58 6.46 0 4.18.82 7.45 2.46 9.79 1.64 2.35 3.78 3.52 6.42 3.52s5.07-1.37 7.29-4.1ZM1096.6 2277.61c-2.16-2.73-3.23-6.29-3.23-10.66 0-1.41.16-3.15.48-5.21.71-3.79 2.08-7.2 4.1-10.23 2.03-3.02 4.49-5.39 7.38-7.09 2.89-1.7 5.95-2.56 9.17-2.56 4.12 0 7.29 1.34 9.5 4 2.22 2.67 3.33 6.19 3.33 10.57 0 1.67-.19 3.44-.58 5.31-.84 4.05-2.33 7.59-4.49 10.61-2.16 3.02-4.68 5.34-7.57 6.95-2.89 1.61-5.85 2.41-8.88 2.41-3.99 0-7.06-1.37-9.22-4.1Zm19.3-1.88c1.96-2.38 3.33-5.63 4.1-9.75.39-2.06.58-4.15.58-6.27 0-4.31-.79-7.98-2.36-11-1.58-3.02-3.81-4.53-6.71-4.53-2.45 0-4.68 1.19-6.71 3.57-2.03 2.38-3.43 5.66-4.2 9.84-.39 1.99-.58 4.05-.58 6.18 0 4.37.8 8.06 2.41 11.05s3.86 4.49 6.75 4.49c2.51 0 4.74-1.19 6.71-3.57ZM1134.85 2280.46l.48-2.22.96-4.73 3.96-21.81c.19-.96.29-1.77.29-2.41 0-1.99-.61-2.99-1.83-2.99-.71 0-1.61.37-2.7 1.11-1.1.74-2.32 1.78-3.67 3.14-.07.07-.16.1-.29.1-.19 0-.35-.11-.48-.34-.13-.22-.13-.4 0-.53 2.19-2.57 4.21-4.47 6.08-5.69 1.86-1.22 3.67-1.83 5.4-1.83 1.29 0 2.22.37 2.8 1.11.58.74.87 1.91.87 3.52 0 .96-.16 2.41-.48 4.34l-5.02 28.27c-.32 1.09-1.61 1.64-3.86 1.64-1.67 0-2.51-.23-2.51-.68Zm21.33 0c.06-.39.27-1.38.63-2.99.35-1.61.63-3.02.82-4.25l3.19-16.89c.26-1.54.39-3.09.39-4.63 0-3.73-1.13-5.6-3.38-5.6-1.93 0-3.96 1.34-6.08 4-2.12 2.67-4.12 6.53-5.98 11.58-1.87 5.05-3.38 10.99-4.54 17.8l-1.45-.1c1.29-7.46 3.04-14.02 5.26-19.69 2.22-5.66 4.76-10.05 7.62-13.17 2.86-3.12 5.84-4.68 8.93-4.68 3.99 0 5.98 2.48 5.98 7.43 0 1.42-.19 3.15-.58 5.21l-4.54 24.99c-.06.52-.42.92-1.06 1.21-.64.29-1.54.44-2.7.44-1.67 0-2.51-.23-2.51-.68Zm23.45-.34c-.58-.74-.87-1.94-.87-3.62 0-1.09.16-2.67.48-4.73l2.8-15.34c.32-2.12.48-3.79.48-5.02 0-3.54-1.13-5.31-3.38-5.31-1.93 0-3.96 1.3-6.08 3.91-2.12 2.6-4.12 6.43-5.98 11.48-1.87 5.05-3.41 11.05-4.63 18l-1.35-.1c1.29-7.53 3.04-14.12 5.26-19.78 2.22-5.66 4.74-10.04 7.57-13.12 2.83-3.09 5.79-4.63 8.88-4.63 3.99 0 5.98 2.45 5.98 7.33 0 1.55-.19 3.35-.58 5.41l-3.09 17.18c-.19.96-.29 1.8-.29 2.51 0 1.87.58 2.8 1.74 2.8.64 0 1.45-.35 2.41-1.06.96-.71 2.16-1.74 3.57-3.09.13-.13.26-.19.39-.19.19 0 .35.11.48.34.13.23.1.44-.1.63-2.19 2.57-4.13 4.47-5.84 5.69-1.7 1.22-3.39 1.83-5.07 1.83-1.29 0-2.22-.37-2.8-1.11ZM1201.39 2277.61c-2.16-2.73-3.23-6.29-3.23-10.66 0-1.41.16-3.15.48-5.21.71-3.79 2.08-7.2 4.1-10.23 2.03-3.02 4.49-5.39 7.38-7.09 2.89-1.7 5.95-2.56 9.17-2.56 4.12 0 7.29 1.34 9.5 4 2.22 2.67 3.33 6.19 3.33 10.57 0 1.67-.19 3.44-.58 5.31-.84 4.05-2.33 7.59-4.49 10.61-2.16 3.02-4.68 5.34-7.57 6.95-2.89 1.61-5.85 2.41-8.88 2.41-3.99 0-7.06-1.37-9.22-4.1Zm19.3-1.88c1.96-2.38 3.33-5.63 4.1-9.75.39-2.06.58-4.15.58-6.27 0-4.31-.79-7.98-2.36-11-1.58-3.02-3.81-4.53-6.71-4.53-2.45 0-4.68 1.19-6.71 3.57-2.03 2.38-3.43 5.66-4.2 9.84-.39 1.99-.58 4.05-.58 6.18 0 4.37.8 8.06 2.41 11.05s3.86 4.49 6.75 4.49c2.51 0 4.74-1.19 6.71-3.57ZM1240.51 2274.18c0-1.54.19-3.31.58-5.31l3.47-17.18c.19-.96.29-1.8.29-2.51 0-1.86-.58-2.8-1.74-2.8-1.22 0-3.22 1.38-5.98 4.15-.13.13-.26.19-.39.19-.19 0-.35-.11-.48-.34-.13-.22-.1-.43.1-.63 2.25-2.57 4.21-4.47 5.89-5.69 1.67-1.22 3.34-1.83 5.02-1.83 2.51 0 3.76 1.58 3.76 4.73 0 1.22-.19 2.8-.58 4.73l-3.09 15.34c-.39 1.93-.58 3.6-.58 5.02 0 3.54 1.29 5.31 3.86 5.31 2.06 0 4.18-1.32 6.37-3.96 2.19-2.64 4.23-6.48 6.13-11.53 1.9-5.05 3.46-11.02 4.68-17.9l1.35.1c-1.29 7.46-3.06 14.02-5.31 19.69-2.25 5.66-4.84 10.05-7.77 13.17-2.93 3.12-6 4.68-9.22 4.68-4.25 0-6.37-2.48-6.37-7.43Zm12.59-40.96c-1.83-1.64-2.88-3.75-3.14-6.32-.07-.39.43-.72 1.5-1.01 1.06-.29 2.11-.44 3.14-.44.71 0 1.09.1 1.16.29.51 1.8 1.45 3.23 2.8 4.29 1.35 1.06 2.89 1.59 4.63 1.59 3.47 0 6.4-1.9 8.78-5.69.13-.19.29-.29.48-.29s.4.08.63.24c.22.16.3.34.24.53-1.29 3.02-3.11 5.32-5.45 6.9-2.35 1.58-4.91 2.36-7.67 2.36s-5.26-.82-7.09-2.46Zm10.18 46.95c-.58-.71-.87-1.87-.87-3.48 0-1.03.16-2.51.48-4.44l4.92-28.27c.13-.51.51-.92 1.16-1.21.64-.29 1.54-.44 2.7-.44 1.67 0 2.51.23 2.51.68l-.39 1.93c-.58 2.77-.93 4.53-1.06 5.31l-3.96 21.52c-.13.58-.19 1.39-.19 2.41 0 2 .58 2.99 1.74 2.99.77 0 1.7-.37 2.8-1.11 1.09-.74 2.28-1.79 3.57-3.14.06-.06.16-.1.29-.1.19 0 .35.11.48.34.13.23.13.4 0 .53-2.25 2.64-4.28 4.55-6.08 5.74-1.8 1.19-3.57 1.78-5.31 1.78-1.29 0-2.22-.35-2.8-1.06ZM1307.82 2277.27c-2.09-2.89-3.14-6.5-3.14-10.81 0-1.93.19-3.79.58-5.6.71-3.8 2.17-7.14 4.39-10.04 2.22-2.89 4.81-5.12 7.77-6.66s5.89-2.32 8.78-2.32c2.32 0 4.33.48 6.03 1.45 1.7.96 2.56 2.28 2.56 3.96 0 1.22-.32 2.21-.96 2.94-.64.74-1.58 1.11-2.8 1.11-1.99 0-3.28-1.19-3.86-3.57-.77-2.38-2.32-3.57-4.63-3.57-2.7 0-4.94 1.26-6.71 3.76-1.77 2.51-3.01 5.79-3.71 9.84-.39 2.12-.58 4.18-.58 6.18 0 4.12.87 7.46 2.61 10.04 1.74 2.57 4.34 3.86 7.82 3.86 3.15 0 6.37-1.32 9.65-3.96l.19-.1c.19 0 .37.13.53.39.16.26.18.45.05.58-4.95 4.57-9.97 6.85-15.05 6.85-4.25 0-7.42-1.45-9.5-4.34ZM1341.2 2277.61c-2.16-2.73-3.23-6.29-3.23-10.66 0-1.41.16-3.15.48-5.21.71-3.79 2.08-7.2 4.1-10.23 2.03-3.02 4.49-5.39 7.38-7.09 2.89-1.7 5.95-2.56 9.17-2.56 4.12 0 7.29 1.34 9.5 4 2.22 2.67 3.33 6.19 3.33 10.57 0 1.67-.19 3.44-.58 5.31-.84 4.05-2.33 7.59-4.49 10.61-2.16 3.02-4.68 5.34-7.58 6.95-2.89 1.61-5.85 2.41-8.88 2.41-3.99 0-7.06-1.37-9.22-4.1Zm19.3-1.88c1.96-2.38 3.33-5.63 4.1-9.75.39-2.06.58-4.15.58-6.27 0-4.31-.79-7.98-2.37-11-1.58-3.02-3.81-4.53-6.71-4.53-2.45 0-4.68 1.19-6.71 3.57-2.03 2.38-3.42 5.66-4.2 9.84-.39 1.99-.58 4.05-.58 6.18 0 4.37.8 8.06 2.41 11.05s3.86 4.49 6.75 4.49c2.51 0 4.74-1.19 6.71-3.57ZM1380.86 2277.51c-2.41-2.8-3.62-7.09-3.62-12.88 0-2.64.29-5.63.87-8.97 2.19-12.61 5.9-21.89 11.15-27.84 5.24-5.95 10.95-9.7 17.13-11.24.39-.13 1.54-.47 3.47-1.01 1.93-.54 3.52-1.25 4.78-2.12 1.26-.87 2.11-1.88 2.56-3.04.13-.13.22-.19.29-.19.19 0 .35.05.48.14.13.1.22.18.29.24-.96 3.41-1.99 5.95-3.09 7.62-1.1 1.67-2.41 2.86-3.96 3.57s-3.93 1.42-7.14 2.12c-4.57.96-8.06 2.11-10.47 3.43-2.41 1.32-4.25 3.1-5.5 5.35-1.25 2.25-2.24 5.44-2.94 9.55-.71 4.25-1.32 10.39-1.83 18.43l-3.19-1.93c4.37-10.68 10.74-16.02 19.11-16.02 4.57 0 7.94 1.45 10.13 4.34 2.19 2.89 3.28 6.43 3.28 10.61 0 1.54-.13 2.96-.39 4.25-.71 3.86-2.19 7.3-4.44 10.32-2.25 3.02-4.92 5.36-8.01 7-3.09 1.64-6.21 2.46-9.36 2.46-3.99 0-7.19-1.4-9.6-4.2Zm19.59-1.93c2.22-2.73 3.78-6.61 4.68-11.63.39-2.32.58-4.5.58-6.56 0-3.99-.76-7.14-2.27-9.46s-3.55-3.47-6.13-3.47c-3.22 0-5.92 1.53-8.11 4.58-2.19 3.06-3.64 6.67-4.34 10.86-.39 2.31-.58 4.47-.58 6.46 0 4.18.82 7.45 2.46 9.79 1.64 2.35 3.78 3.52 6.42 3.52s5.07-1.37 7.29-4.1ZM1408.89 2306.41c-.06-.39.03-.61.29-.67 1.42-.26 2.44-.6 3.09-1.01.64-.42 1.14-1.1 1.5-2.03.35-.93.72-2.43 1.11-4.49l9.84-55.1c0-.13.54-.59 1.64-1.4 1.09-.8 2.06-1.69 2.89-2.65.83-.96 1.38-2.03 1.64-3.18 0-.19.16-.29.48-.29.13 0 .27.05.43.15.16.1.21.21.15.34l-10.9 61.47c-.19 1.09-.29 1.99-.29 2.7 0 1.09.26 1.88.77 2.37s1.32.72 2.41.72c.39 0 1.16-.07 2.32-.19.26-.06.43.08.53.44.1.35.02.56-.24.63l-17.18 2.7c-.26.06-.42-.1-.48-.48Zm11.77-26.83.96-5.31a20.67 20.67 0 0 0 4.73 2.46c1.67.61 3.6.92 5.79.92 3.8 0 6.8-1.67 9.02-5.02 2.22-3.34 3.68-7.85 4.39-13.51.13-1.54.19-2.67.19-3.38 0-6.3-2.64-9.46-7.91-9.46-2.77 0-5.63.74-8.59 2.22-2.96 1.48-6.53 3.83-10.71 7.04l-.19.1c-.19 0-.37-.15-.53-.44-.16-.29-.15-.5.05-.63 9.39-8.11 17.66-12.16 24.8-12.16 3.15 0 5.55.85 7.19 2.56 1.64 1.71 2.46 4.2 2.46 7.48 0 1.03-.1 2.19-.29 3.47-.58 4.31-2.04 8.35-4.39 12.11-2.35 3.76-5.16 6.77-8.44 9.02-3.28 2.25-6.63 3.38-10.04 3.38-2.89 0-5.73-.29-8.49-.87ZM1457.67 2279.83c-1.06-1.19-1.59-3.01-1.59-5.45 0-.58.06-1.51.19-2.8.64-4.44 2.36-8.99 5.16-13.65 2.8-4.66 6.1-8.51 9.89-11.53 3.8-3.02 7.37-4.54 10.71-4.54 2.06 0 3.91.58 5.55 1.74 1.64 1.16 2.56 2.86 2.75 5.11l-4.63-2.8c.9-.13 1.91-.66 3.04-1.59 1.13-.93 1.91-2.01 2.36-3.23.13-.13.26-.19.39-.19.19 0 .39.05.58.15.19.1.26.18.19.24l-5.6 30.49c-.19 1.03-.29 1.9-.29 2.61 0 1.8.51 2.7 1.55 2.7 1.41 0 3.44-1.38 6.08-4.15.06-.06.16-.1.29-.1.19 0 .35.11.48.34.13.23.13.4 0 .53-2.12 2.51-4.05 4.39-5.79 5.64-1.74 1.26-3.41 1.88-5.02 1.88-1.29 0-2.24-.39-2.85-1.16-.61-.77-.92-1.99-.92-3.67 0-1.03.16-2.57.48-4.63l2.31-13.51 1.83-1.64c-1.8 4.95-3.97 9.31-6.51 13.07-2.54 3.76-5.23 6.69-8.06 8.78-2.83 2.09-5.53 3.14-8.11 3.14-1.93 0-3.42-.6-4.49-1.79Zm15.73-7.09c2.41-2.25 4.57-5.08 6.46-8.49 1.9-3.41 3.17-6.72 3.81-9.94.19-.9.29-1.74.29-2.51 0-1.8-.48-3.26-1.45-4.39-.96-1.13-2.31-1.69-4.05-1.69-2.12 0-4.28.89-6.46 2.65-2.19 1.77-4.12 4.23-5.79 7.38-1.67 3.15-2.8 6.63-3.38 10.42-.26 2.06-.39 3.41-.39 4.05 0 3.92 1.35 5.89 4.05 5.89 2.19 0 4.49-1.13 6.9-3.38ZM1501.82 2280.46l.39-1.93c.58-2.76.93-4.53 1.06-5.31l3.96-21.52c.19-.96.29-1.77.29-2.41 0-1.99-.61-2.99-1.83-2.99-.71 0-1.61.37-2.7 1.11-1.09.74-2.31 1.78-3.67 3.14-.07.07-.16.1-.29.1-.19 0-.35-.11-.48-.34-.13-.22-.13-.4 0-.53 2.19-2.57 4.21-4.47 6.08-5.69 1.86-1.22 3.67-1.83 5.4-1.83 1.29 0 2.22.37 2.8 1.11.58.74.87 1.91.87 3.52 0 .96-.16 2.41-.48 4.34l-5.02 28.27c-.13.52-.51.92-1.16 1.21-.64.29-1.51.44-2.61.44-1.74 0-2.6-.23-2.6-.68Zm6.66-19.69h22.68l-.29 1.93h-22.77l.39-1.93Zm17.71 19.25c-.61-.74-.92-1.91-.92-3.52 0-1.03.16-2.44.48-4.25l5.02-28.37c.13-.51.51-.92 1.16-1.21.64-.29 1.51-.43 2.61-.43 1.74 0 2.6.23 2.6.67l-.39 2.12c-.64 3.02-1 4.73-1.06 5.11l-3.96 21.52c-.19.96-.29 1.8-.29 2.51 0 1.93.61 2.89 1.83 2.89.71 0 1.61-.37 2.7-1.11 1.09-.74 2.28-1.78 3.57-3.14.06-.06.16-.1.29-.1.26 0 .45.11.58.34.13.23.13.44 0 .63-2.19 2.57-4.21 4.46-6.08 5.64-1.87 1.19-3.63 1.79-5.31 1.79-1.29 0-2.24-.37-2.85-1.11ZM1547.89 2277.61c-2.16-2.73-3.23-6.29-3.23-10.66 0-1.41.16-3.15.48-5.21.71-3.79 2.08-7.2 4.1-10.23 2.03-3.02 4.49-5.39 7.38-7.09 2.89-1.7 5.95-2.56 9.17-2.56 4.12 0 7.29 1.34 9.5 4 2.22 2.67 3.33 6.19 3.33 10.57 0 1.67-.19 3.44-.58 5.31-.84 4.05-2.33 7.59-4.49 10.61-2.16 3.02-4.68 5.34-7.58 6.95-2.89 1.61-5.85 2.41-8.88 2.41-3.99 0-7.06-1.37-9.22-4.1Zm19.3-1.88c1.96-2.38 3.33-5.63 4.1-9.75.39-2.06.58-4.15.58-6.27 0-4.31-.79-7.98-2.37-11-1.58-3.02-3.81-4.53-6.71-4.53-2.45 0-4.68 1.19-6.71 3.57-2.03 2.38-3.42 5.66-4.2 9.84-.39 1.99-.58 4.05-.58 6.18 0 4.37.8 8.06 2.41 11.05s3.86 4.49 6.75 4.49c2.51 0 4.74-1.19 6.71-3.57ZM835.53 2381.78c-.13 0-.28-.08-.43-.24-.16-.16-.21-.3-.15-.43 1.93-2.51 3.73-4.41 5.4-5.69 1.67-1.29 3.51-1.93 5.5-1.93 1.54 0 4.02.55 7.43 1.64 1.86.58 3.39 1.01 4.58 1.3 1.19.29 2.33.43 3.43.43 1.8 0 3.25-.32 4.34-.96 1.09-.64 2.16-1.54 3.19-2.7h.1c.19 0 .37.08.53.24.16.16.18.31.05.44-2.32 2.89-4.23 4.87-5.74 5.93-1.51 1.06-3.2 1.59-5.07 1.59s-4.34-.54-7.62-1.64c-1.35-.39-2.77-.76-4.25-1.11-1.48-.35-2.8-.53-3.96-.53-1.67 0-2.94.26-3.81.77-.87.52-2.01 1.48-3.43 2.89h-.1ZM891.01 2422.21c-.84-.71-1.16-1.87-.96-3.47.45-2.12 1.93-3.19 4.44-3.19.71 0 1.7.06 2.99.19 1.16.13 2.09.19 2.8.19 2.12 0 3.96-.58 5.5-1.74 2.25-1.54 5.15-4.81 8.68-9.79a161.45 161.45 0 0 0 9.84-15.73c3.02-5.5 4.89-9.6 5.6-12.3.32-1.61.48-2.89.48-3.86 0-1.35-.16-2.57-.48-3.67a23.67 23.67 0 0 0-1.35-3.47c-.71-1.8-1.06-3.06-1.06-3.76 0-1.09.39-1.98 1.16-2.65.77-.67 1.77-1.01 2.99-1.01 1.35 0 2.38.51 3.09 1.54s1.06 2.45 1.06 4.25c0 5.08-2.53 12.48-7.57 22.19-5.05 9.71-10.86 18.37-17.42 25.96-6.56 7.59-12 11.39-16.31 11.39-1.48 0-2.64-.35-3.47-1.06Zm22.29-20.26c0-12.48-.95-22.15-2.85-29-1.9-6.85-4.52-10.28-7.86-10.28-.84 0-1.67.29-2.51.87-.84.58-1.54 1.42-2.12 2.51-.07.19-.26.29-.58.29-.45 0-.64-.19-.58-.58 1.16-2.44 2.61-4.34 4.34-5.69 1.74-1.35 3.51-2.03 5.31-2.03 2.64 0 4.9 1.5 6.8 4.49 1.9 2.99 3.34 7.09 4.34 12.3 1 5.21 1.5 11.03 1.5 17.47 0 1.48-.07 3.7-.19 6.66l-5.69 8.78.1-5.79ZM944.47 2396.25l.39-1.93c.58-2.76.93-4.53 1.06-5.31l3.96-21.52c.19-.96.29-1.77.29-2.41 0-1.99-.61-2.99-1.83-2.99-.71 0-1.61.37-2.7 1.11-1.1.74-2.32 1.78-3.67 3.14-.07.07-.16.1-.29.1-.19 0-.35-.11-.48-.34-.13-.22-.13-.4 0-.53 2.19-2.57 4.21-4.47 6.08-5.69 1.86-1.22 3.67-1.83 5.4-1.83 1.29 0 2.22.37 2.8 1.11.58.74.87 1.91.87 3.52 0 .96-.16 2.41-.48 4.34l-5.02 28.27c-.13.52-.52.92-1.16 1.21-.64.29-1.51.44-2.61.44-1.74 0-2.61-.23-2.61-.68Zm24.41-.34c-.58-.74-.87-1.94-.87-3.62 0-1.09.16-2.67.48-4.73l2.8-15.34c.39-1.93.58-3.6.58-5.02 0-3.54-1.26-5.31-3.76-5.31-2.06 0-4.18 1.32-6.37 3.96-2.19 2.64-4.25 6.48-6.18 11.53-1.93 5.05-3.51 11.02-4.73 17.9l-1.35-.1c1.29-7.46 3.05-14.02 5.31-19.69 2.25-5.66 4.84-10.05 7.77-13.17 2.93-3.12 6-4.68 9.22-4.68 2.12 0 3.72.61 4.78 1.83 1.06 1.22 1.59 3.09 1.59 5.6 0 1.48-.19 3.25-.58 5.31l-3.18 17.18c-.19.96-.29 1.77-.29 2.41 0 1.93.61 2.89 1.83 2.89 1.09 0 3.09-1.38 5.98-4.15.13-.13.23-.19.29-.19.19 0 .35.11.48.34.13.23.13.44 0 .63-2.19 2.57-4.15 4.47-5.89 5.69-1.74 1.22-3.44 1.83-5.11 1.83-1.29 0-2.22-.37-2.8-1.11ZM987.65 2395.62c-1.06-1.19-1.59-3.01-1.59-5.45 0-.58.06-1.51.19-2.8.64-4.44 2.36-8.99 5.16-13.65 2.8-4.66 6.1-8.51 9.89-11.53 3.8-3.02 7.37-4.54 10.71-4.54 2.06 0 3.91.58 5.55 1.74 1.64 1.16 2.56 2.86 2.75 5.11l-4.63-2.8c.9-.13 1.91-.66 3.04-1.59 1.12-.93 1.91-2.01 2.36-3.23.13-.13.26-.19.39-.19.19 0 .39.05.58.15.19.1.26.18.19.24l-5.6 30.49c-.19 1.03-.29 1.9-.29 2.61 0 1.8.51 2.7 1.54 2.7 1.41 0 3.44-1.38 6.08-4.15.06-.06.16-.1.29-.1.19 0 .35.11.48.34.13.23.13.4 0 .53-2.12 2.51-4.05 4.39-5.79 5.64-1.74 1.26-3.41 1.88-5.02 1.88-1.29 0-2.24-.39-2.85-1.16-.61-.77-.92-1.99-.92-3.67 0-1.03.16-2.57.48-4.63l2.32-13.51 1.83-1.64c-1.8 4.95-3.97 9.31-6.51 13.07-2.54 3.76-5.23 6.69-8.06 8.78-2.83 2.09-5.53 3.14-8.11 3.14-1.93 0-3.43-.6-4.49-1.79Zm15.73-7.09c2.41-2.25 4.57-5.08 6.47-8.49 1.9-3.41 3.17-6.72 3.81-9.94.19-.9.29-1.74.29-2.51 0-1.8-.48-3.26-1.45-4.39-.96-1.13-2.32-1.69-4.05-1.69-2.12 0-4.28.89-6.47 2.65-2.19 1.77-4.12 4.23-5.79 7.38-1.67 3.15-2.8 6.63-3.38 10.42-.26 2.06-.39 3.41-.39 4.05 0 3.92 1.35 5.89 4.05 5.89 2.19 0 4.49-1.13 6.9-3.38ZM1031.8 2396.25l.39-1.93c.58-2.76.93-4.53 1.06-5.31l3.96-21.52c.19-.96.29-1.77.29-2.41 0-1.99-.61-2.99-1.83-2.99-.71 0-1.61.37-2.7 1.11-1.1.74-2.32 1.78-3.67 3.14-.07.07-.16.1-.29.1-.19 0-.35-.11-.48-.34-.13-.22-.13-.4 0-.53 2.19-2.57 4.21-4.47 6.08-5.69 1.86-1.22 3.67-1.83 5.4-1.83 1.29 0 2.22.37 2.8 1.11.58.74.87 1.91.87 3.52 0 .96-.16 2.41-.48 4.34l-5.02 28.27c-.13.52-.52.92-1.16 1.21-.64.29-1.51.44-2.61.44-1.74 0-2.61-.23-2.61-.68Zm11.39-19.01c3.22-5.73 6.74-10.37 10.57-13.94 3.83-3.57 7.09-5.35 9.79-5.35 1.22 0 2.2.34 2.94 1.01.74.68 1.11 1.56 1.11 2.65 0 .96-.34 1.79-1.01 2.46s-1.59 1.01-2.75 1.01c-.71 0-1.64-.29-2.8-.87-.64-.45-1.29-.68-1.93-.68-2.06 0-4.54 1.66-7.43 4.97-2.89 3.32-5.61 7.46-8.15 12.45-2.54 4.99-4.33 9.76-5.36 14.33l-1.45-.1c1.09-6.24 3.25-12.22 6.47-17.95Zm10.76 17.42c-.55-1.7-.82-4.55-.82-8.54 0-3.22-.29-5.63-.87-7.24-.58-1.61-1.9-2.41-3.96-2.41a9.8 9.8 0 0 0-3.09.48l-.29-1.25c2.25-.9 4.44-1.35 6.56-1.35 2.89 0 4.86.92 5.89 2.75 1.03 1.83 1.54 4.29 1.54 7.38s.13 5.21.39 6.37c.26 1.16.93 1.74 2.03 1.74 1.16 0 3.02-1.16 5.6-3.48.06-.06.16-.1.29-.1.19 0 .35.11.48.34.13.23.13.4 0 .53-2.25 2.64-4.07 4.52-5.45 5.64-1.38 1.13-2.88 1.69-4.49 1.69-1.99 0-3.27-.85-3.81-2.56ZM1075.65 2393.41c-2.16-2.73-3.23-6.29-3.23-10.66 0-1.41.16-3.15.48-5.21.71-3.79 2.08-7.2 4.1-10.23 2.03-3.02 4.49-5.39 7.38-7.09 2.89-1.7 5.95-2.56 9.17-2.56 4.12 0 7.29 1.34 9.5 4 2.22 2.67 3.33 6.19 3.33 10.57 0 1.67-.19 3.44-.58 5.31-.84 4.05-2.33 7.59-4.49 10.61-2.16 3.02-4.68 5.34-7.57 6.95-2.89 1.61-5.85 2.41-8.88 2.41-3.99 0-7.06-1.37-9.22-4.1Zm19.3-1.88c1.96-2.38 3.33-5.63 4.1-9.75.39-2.06.58-4.15.58-6.27 0-4.31-.79-7.98-2.36-11-1.58-3.02-3.81-4.53-6.71-4.53-2.45 0-4.68 1.19-6.71 3.57-2.03 2.38-3.43 5.66-4.2 9.84-.39 1.99-.58 4.05-.58 6.18 0 4.37.8 8.06 2.41 11.05s3.86 4.49 6.75 4.49c2.51 0 4.74-1.19 6.71-3.57ZM1115.26 2393.41c-2.45-2.73-3.67-6.23-3.67-10.47 0-1.93.16-3.57.48-4.92.71-3.54 2.08-6.87 4.1-9.99 2.03-3.12 4.62-5.63 7.77-7.53 3.15-1.9 6.62-2.85 10.42-2.85 3.15 0 5.6.63 7.33 1.88 1.74 1.25 2.61 2.85 2.61 4.78 0 2.38-1.24 4.7-3.71 6.95-2.48 2.25-5.74 3.83-9.79 4.73l1.45-1.06c3.34 0 6.03.79 8.06 2.36 2.03 1.58 3.04 3.62 3.04 6.13 0 .45-.07 1.06-.19 1.83-.32 1.93-1.19 3.84-2.61 5.74-1.42 1.9-3.36 3.46-5.84 4.68-2.48 1.22-5.32 1.83-8.54 1.83-4.82 0-8.46-1.37-10.9-4.1Zm19.64-.48c1.45-1.9 2.17-4.23 2.17-7 0-2.44-.76-4.41-2.27-5.89-1.51-1.48-3.72-2.22-6.61-2.22-1.03 0-2.51.16-4.44.48h-.1c-.26 0-.47-.08-.63-.24a.742.742 0 0 1-.24-.53c0-.38.19-.61.58-.67 3.47-.9 6.14-1.74 8.01-2.51 1.87-.77 3.3-1.75 4.29-2.94 1-1.19 1.62-2.78 1.88-4.78.06-.32.1-.8.1-1.45 0-1.99-.53-3.47-1.59-4.44-1.06-.96-2.46-1.45-4.2-1.45-3.15 0-5.92 1.53-8.3 4.58-2.38 3.06-3.99 6.87-4.82 11.43-.39 1.99-.58 3.96-.58 5.89 0 4.18.88 7.66 2.65 10.42 1.77 2.77 4.33 4.15 7.67 4.15 2.83 0 4.97-.95 6.42-2.85ZM1151.5 2395.62c-1.06-1.19-1.59-3.01-1.59-5.45 0-.58.06-1.51.19-2.8.64-4.44 2.36-8.99 5.16-13.65 2.8-4.66 6.1-8.51 9.89-11.53 3.8-3.02 7.37-4.54 10.71-4.54 2.06 0 3.91.58 5.55 1.74 1.64 1.16 2.56 2.86 2.75 5.11l-4.63-2.8c.9-.13 1.91-.66 3.04-1.59 1.12-.93 1.91-2.01 2.36-3.23.13-.13.26-.19.39-.19.19 0 .39.05.58.15.19.1.26.18.19.24l-5.6 30.49c-.19 1.03-.29 1.9-.29 2.61 0 1.8.51 2.7 1.54 2.7 1.41 0 3.44-1.38 6.08-4.15.06-.06.16-.1.29-.1.19 0 .35.11.48.34.13.23.13.4 0 .53-2.12 2.51-4.05 4.39-5.79 5.64-1.74 1.26-3.41 1.88-5.02 1.88-1.29 0-2.24-.39-2.85-1.16-.61-.77-.92-1.99-.92-3.67 0-1.03.16-2.57.48-4.63l2.32-13.51 1.83-1.64c-1.8 4.95-3.97 9.31-6.51 13.07-2.54 3.76-5.23 6.69-8.06 8.78-2.83 2.09-5.53 3.14-8.11 3.14-1.93 0-3.43-.6-4.49-1.79Zm15.73-7.09c2.41-2.25 4.57-5.08 6.47-8.49 1.9-3.41 3.17-6.72 3.81-9.94.19-.9.29-1.74.29-2.51 0-1.8-.48-3.26-1.45-4.39-.96-1.13-2.32-1.69-4.05-1.69-2.12 0-4.28.89-6.47 2.65-2.19 1.77-4.12 4.23-5.79 7.38-1.67 3.15-2.8 6.63-3.38 10.42-.26 2.06-.39 3.41-.39 4.05 0 3.92 1.35 5.89 4.05 5.89 2.19 0 4.49-1.13 6.9-3.38ZM1195.64 2396.25l.39-1.93c.58-2.76.93-4.53 1.06-5.31l3.96-21.52c.19-.96.29-1.77.29-2.41 0-1.99-.61-2.99-1.83-2.99-.71 0-1.61.37-2.7 1.11-1.1.74-2.32 1.78-3.67 3.14-.07.07-.16.1-.29.1-.19 0-.35-.11-.48-.34-.13-.22-.13-.4 0-.53 2.19-2.57 4.21-4.47 6.08-5.69 1.86-1.22 3.67-1.83 5.4-1.83 1.29 0 2.22.37 2.8 1.11.58.74.87 1.91.87 3.52 0 .96-.16 2.41-.48 4.34l-5.02 28.27c-.13.52-.52.92-1.16 1.21-.64.29-1.51.44-2.61.44-1.74 0-2.61-.23-2.61-.68Zm6.66-19.69h22.68l-.29 1.93h-22.77l.39-1.93Zm17.71 19.25c-.61-.74-.92-1.91-.92-3.52 0-1.03.16-2.44.48-4.25l5.02-28.37c.13-.51.51-.92 1.16-1.21.64-.29 1.51-.43 2.61-.43 1.74 0 2.6.23 2.6.67l-.39 2.12c-.64 3.02-1 4.73-1.06 5.11l-3.96 21.52c-.19.96-.29 1.8-.29 2.51 0 1.93.61 2.89 1.83 2.89.71 0 1.61-.37 2.7-1.11 1.09-.74 2.28-1.78 3.57-3.14.06-.06.16-.1.29-.1.26 0 .45.11.58.34.13.23.13.44 0 .63-2.19 2.57-4.21 4.46-6.08 5.64-1.87 1.19-3.64 1.79-5.31 1.79-1.29 0-2.24-.37-2.85-1.11ZM1241.72 2393.41c-2.16-2.73-3.23-6.29-3.23-10.66 0-1.41.16-3.15.48-5.21.71-3.79 2.08-7.2 4.1-10.23 2.03-3.02 4.49-5.39 7.38-7.09 2.89-1.7 5.95-2.56 9.17-2.56 4.12 0 7.29 1.34 9.5 4 2.22 2.67 3.33 6.19 3.33 10.57 0 1.67-.19 3.44-.58 5.31-.84 4.05-2.33 7.59-4.49 10.61-2.16 3.02-4.68 5.34-7.57 6.95-2.89 1.61-5.85 2.41-8.88 2.41-3.99 0-7.06-1.37-9.22-4.1Zm19.3-1.88c1.96-2.38 3.33-5.63 4.1-9.75.39-2.06.58-4.15.58-6.27 0-4.31-.79-7.98-2.36-11-1.58-3.02-3.81-4.53-6.71-4.53-2.45 0-4.68 1.19-6.71 3.57-2.03 2.38-3.43 5.66-4.2 9.84-.39 1.99-.58 4.05-.58 6.18 0 4.37.8 8.06 2.41 11.05s3.86 4.49 6.75 4.49c2.51 0 4.74-1.19 6.71-3.57ZM1303.91 2393.41c-2.45-2.73-3.67-6.23-3.67-10.47 0-1.93.16-3.57.48-4.92.71-3.54 2.08-6.87 4.1-9.99 2.03-3.12 4.62-5.63 7.77-7.53 3.15-1.9 6.62-2.85 10.42-2.85 3.15 0 5.6.63 7.33 1.88 1.74 1.25 2.61 2.85 2.61 4.78 0 2.38-1.24 4.7-3.71 6.95-2.48 2.25-5.74 3.83-9.79 4.73l1.45-1.06c3.34 0 6.03.79 8.06 2.36 2.03 1.58 3.04 3.62 3.04 6.13 0 .45-.07 1.06-.19 1.83-.32 1.93-1.19 3.84-2.61 5.74-1.42 1.9-3.36 3.46-5.84 4.68-2.48 1.22-5.32 1.83-8.54 1.83-4.82 0-8.46-1.37-10.9-4.1Zm19.64-.48c1.45-1.9 2.17-4.23 2.17-7 0-2.44-.76-4.41-2.27-5.89-1.51-1.48-3.72-2.22-6.61-2.22-1.03 0-2.51.16-4.44.48h-.1c-.26 0-.47-.08-.63-.24a.742.742 0 0 1-.24-.53c0-.38.19-.61.58-.67 3.47-.9 6.14-1.74 8.01-2.51 1.87-.77 3.3-1.75 4.29-2.94 1-1.19 1.62-2.78 1.88-4.78.06-.32.1-.8.1-1.45 0-1.99-.53-3.47-1.59-4.44-1.06-.96-2.46-1.45-4.2-1.45-3.15 0-5.92 1.53-8.3 4.58-2.38 3.06-3.99 6.87-4.82 11.43-.39 1.99-.58 3.96-.58 5.89 0 4.18.88 7.66 2.65 10.42 1.77 2.77 4.33 4.15 7.67 4.15 2.83 0 4.97-.95 6.42-2.85ZM1330.54 2422.21c-.06-.39.03-.61.29-.67 1.42-.26 2.45-.6 3.09-1.01.64-.42 1.14-1.1 1.5-2.03.35-.93.72-2.43 1.11-4.49l9.84-55.1c0-.13.54-.59 1.64-1.4 1.09-.8 2.06-1.69 2.89-2.65.83-.96 1.38-2.03 1.64-3.18 0-.19.16-.29.48-.29.13 0 .27.05.43.15.16.1.21.21.15.34l-10.9 61.47c-.19 1.09-.29 1.99-.29 2.7 0 1.09.26 1.88.77 2.37s1.32.72 2.41.72c.39 0 1.16-.07 2.32-.19.26-.06.43.08.53.44.1.35.02.56-.24.63l-17.18 2.7c-.26.06-.42-.1-.48-.48Zm11.77-26.83.96-5.31a20.67 20.67 0 0 0 4.73 2.46c1.67.61 3.6.92 5.79.92 3.8 0 6.8-1.67 9.02-5.02 2.22-3.34 3.68-7.85 4.39-13.51.13-1.54.19-2.67.19-3.38 0-6.3-2.64-9.46-7.91-9.46-2.77 0-5.63.74-8.59 2.22-2.96 1.48-6.53 3.83-10.71 7.04l-.19.1c-.19 0-.37-.15-.53-.44-.16-.29-.15-.5.05-.63 9.39-8.11 17.66-12.16 24.8-12.16 3.15 0 5.55.85 7.19 2.56 1.64 1.71 2.46 4.2 2.46 7.48 0 1.03-.1 2.19-.29 3.47-.58 4.31-2.04 8.35-4.39 12.11-2.35 3.76-5.16 6.77-8.44 9.02-3.28 2.25-6.63 3.38-10.04 3.38-2.89 0-5.73-.29-8.49-.87ZM1369.72 2422.21c-.83-.71-1.16-1.87-.96-3.47.45-2.12 1.93-3.19 4.44-3.19.71 0 1.7.06 2.99.19 1.16.13 2.09.19 2.8.19 2.12 0 3.96-.58 5.5-1.74 2.25-1.54 5.15-4.81 8.68-9.79a161.45 161.45 0 0 0 9.84-15.73c3.02-5.5 4.89-9.6 5.6-12.3.32-1.61.48-2.89.48-3.86 0-1.35-.16-2.57-.48-3.67a23.67 23.67 0 0 0-1.35-3.47c-.71-1.8-1.06-3.06-1.06-3.76 0-1.09.39-1.98 1.16-2.65.77-.67 1.77-1.01 2.99-1.01 1.35 0 2.38.51 3.09 1.54s1.06 2.45 1.06 4.25c0 5.08-2.53 12.48-7.57 22.19-5.05 9.71-10.86 18.37-17.42 25.96-6.56 7.59-12 11.39-16.31 11.39-1.48 0-2.64-.35-3.48-1.06Zm22.29-20.26c0-12.48-.95-22.15-2.85-29-1.9-6.85-4.52-10.28-7.86-10.28-.84 0-1.67.29-2.51.87-.84.58-1.54 1.42-2.12 2.51-.07.19-.26.29-.58.29-.45 0-.64-.19-.58-.58 1.16-2.44 2.61-4.34 4.34-5.69 1.74-1.35 3.51-2.03 5.31-2.03 2.64 0 4.91 1.5 6.8 4.49 1.9 2.99 3.34 7.09 4.34 12.3 1 5.21 1.5 11.03 1.5 17.47 0 1.48-.07 3.7-.19 6.66l-5.69 8.78.1-5.79ZM1427.04 2382.26c-1.03-1.22-1.54-3.06-1.54-5.5 0-1.48.19-3.19.58-5.12l.77-4.15c.19-1.09.29-1.96.29-2.61 0-1.8-.58-2.7-1.74-2.7-.58 0-1.29.29-2.12.87-.84.58-1.9 1.42-3.18 2.51-.13.13-.23.19-.29.19-.19 0-.35-.11-.48-.34-.13-.22-.13-.44 0-.63 1.93-2.25 3.71-3.94 5.36-5.07 1.64-1.13 3.23-1.69 4.78-1.69 1.29 0 2.25.39 2.89 1.16.64.77.96 2 .96 3.67 0 1.22-.19 2.77-.58 4.63l-.48 2.22c-.39 2.12-.58 3.86-.58 5.21 0 1.74.29 2.98.87 3.71.58.74 1.42 1.11 2.51 1.11 2.44 0 4.84-1.8 7.19-5.4 2.35-3.6 4.17-8.46 5.45-14.57l1.54.1c-1.03 4.89-2.49 9.17-4.39 12.83-1.9 3.67-4.02 6.48-6.37 8.44-2.35 1.96-4.71 2.94-7.09 2.94-1.87 0-3.31-.61-4.34-1.83Zm16.16 13.65c-.61-.74-.92-1.91-.92-3.52 0-.96.16-2.41.48-4.34l4.92-28.27c.32-1.09 1.61-1.64 3.86-1.64 1.67 0 2.51.23 2.51.68l-.39 1.93c-.58 2.77-.93 4.53-1.06 5.31l-3.96 21.52c-.13.58-.19 1.39-.19 2.41 0 2 .61 2.99 1.83 2.99.71 0 1.61-.37 2.7-1.11 1.09-.74 2.28-1.79 3.57-3.14.06-.06.16-.1.29-.1.26 0 .45.11.58.34.13.23.1.4-.1.53-2.19 2.57-4.2 4.47-6.03 5.69s-3.59 1.83-5.26 1.83c-1.29 0-2.24-.37-2.85-1.11ZM1464.48 2396.25l.39-1.93c.58-2.76.93-4.53 1.06-5.31l3.96-21.52c.19-.96.29-1.77.29-2.41 0-1.99-.61-2.99-1.83-2.99-.71 0-1.61.37-2.7 1.11-1.09.74-2.31 1.78-3.67 3.14-.07.07-.16.1-.29.1-.19 0-.35-.11-.48-.34-.13-.22-.13-.4 0-.53 2.19-2.57 4.21-4.47 6.08-5.69 1.86-1.22 3.67-1.83 5.4-1.83 1.29 0 2.22.37 2.8 1.11.58.74.87 1.91.87 3.52 0 .96-.16 2.41-.48 4.34l-5.02 28.27c-.13.52-.51.92-1.16 1.21-.64.29-1.51.44-2.61.44-1.74 0-2.6-.23-2.6-.68Zm6.66-19.69h22.68l-.29 1.93h-22.77l.39-1.93Zm17.71 19.25c-.61-.74-.92-1.91-.92-3.52 0-1.03.16-2.44.48-4.25l5.02-28.37c.13-.51.51-.92 1.16-1.21.64-.29 1.51-.43 2.61-.43 1.74 0 2.6.23 2.6.67l-.39 2.12c-.64 3.02-1 4.73-1.06 5.11l-3.96 21.52c-.19.96-.29 1.8-.29 2.51 0 1.93.61 2.89 1.83 2.89.71 0 1.61-.37 2.7-1.11 1.09-.74 2.28-1.78 3.57-3.14.06-.06.16-.1.29-.1.26 0 .45.11.58.34.13.23.13.44 0 .63-2.19 2.57-4.21 4.46-6.08 5.64-1.87 1.19-3.63 1.79-5.31 1.79-1.29 0-2.24-.37-2.85-1.11ZM1498.54 2422.21c-.83-.71-1.16-1.87-.96-3.47.45-2.12 1.93-3.19 4.44-3.19.71 0 1.7.06 2.99.19 1.16.13 2.09.19 2.8.19 2.12 0 3.96-.58 5.5-1.74 2.25-1.54 5.15-4.81 8.68-9.79a161.45 161.45 0 0 0 9.84-15.73c3.02-5.5 4.89-9.6 5.6-12.3.32-1.61.48-2.89.48-3.86 0-1.35-.16-2.57-.48-3.67a23.67 23.67 0 0 0-1.35-3.47c-.71-1.8-1.06-3.06-1.06-3.76 0-1.09.39-1.98 1.16-2.65.77-.67 1.77-1.01 2.99-1.01 1.35 0 2.38.51 3.09 1.54s1.06 2.45 1.06 4.25c0 5.08-2.53 12.48-7.57 22.19-5.05 9.71-10.86 18.37-17.42 25.96-6.56 7.59-12 11.39-16.31 11.39-1.48 0-2.64-.35-3.48-1.06Zm22.29-20.26c0-12.48-.95-22.15-2.85-29-1.9-6.85-4.52-10.28-7.86-10.28-.84 0-1.67.29-2.51.87-.84.58-1.54 1.42-2.12 2.51-.07.19-.26.29-.58.29-.45 0-.64-.19-.58-.58 1.16-2.44 2.61-4.34 4.34-5.69 1.74-1.35 3.51-2.03 5.31-2.03 2.64 0 4.91 1.5 6.8 4.49 1.9 2.99 3.34 7.09 4.34 12.3 1 5.21 1.5 11.03 1.5 17.47 0 1.48-.07 3.7-.19 6.66l-5.69 8.78.1-5.79ZM1552 2396.25l.39-1.93c.58-2.76.93-4.53 1.06-5.31l3.96-21.52c.19-.96.29-1.77.29-2.41 0-1.99-.61-2.99-1.83-2.99-.71 0-1.61.37-2.7 1.11-1.09.74-2.31 1.78-3.67 3.14-.07.07-.16.1-.29.1-.19 0-.35-.11-.48-.34-.13-.22-.13-.4 0-.53 2.19-2.57 4.21-4.47 6.08-5.69 1.86-1.22 3.67-1.83 5.4-1.83 1.29 0 2.22.37 2.8 1.11.58.74.87 1.91.87 3.52 0 .96-.16 2.41-.48 4.34l-5.02 28.27c-.13.52-.51.92-1.16 1.21-.64.29-1.51.44-2.61.44-1.74 0-2.6-.23-2.6-.68Zm6.95-19.69h13.99l-.38 1.93h-13.9l.29-1.93Zm13.03 16.79c-1.99-2.76-2.99-6.3-2.99-10.61 0-1.54.16-3.28.48-5.21.71-3.79 2.01-7.2 3.91-10.23 1.9-3.02 4.23-5.39 7-7.09 2.76-1.7 5.72-2.56 8.88-2.56 3.99 0 7.08 1.35 9.26 4.05 2.19 2.7 3.28 6.21 3.28 10.52 0 1.67-.19 3.44-.58 5.31-.77 3.99-2.24 7.5-4.39 10.52-2.16 3.02-4.65 5.36-7.48 7-2.83 1.64-5.69 2.46-8.59 2.46-3.86 0-6.79-1.38-8.78-4.15Zm18.38-1.83c1.96-2.38 3.33-5.63 4.1-9.75.39-2.06.58-4.08.58-6.08 0-4.37-.79-8.09-2.36-11.15-1.58-3.06-3.75-4.58-6.51-4.58-2.45 0-4.6 1.21-6.47 3.62s-3.12 5.68-3.76 9.79c-.32 2.12-.48 4.12-.48 5.98 0 4.38.74 8.09 2.22 11.15 1.48 3.06 3.57 4.58 6.27 4.58 2.32 0 4.45-1.19 6.42-3.57ZM1631.41 2381.78c-.13 0-.28-.08-.44-.24-.16-.16-.21-.3-.14-.43 1.93-2.51 3.73-4.41 5.4-5.69 1.67-1.29 3.51-1.93 5.5-1.93 1.54 0 4.02.55 7.43 1.64 1.86.58 3.39 1.01 4.58 1.3 1.19.29 2.33.43 3.42.43 1.8 0 3.25-.32 4.34-.96 1.09-.64 2.15-1.54 3.19-2.7h.1c.19 0 .37.08.53.24.16.16.18.31.05.44-2.32 2.89-4.23 4.87-5.74 5.93-1.51 1.06-3.2 1.59-5.07 1.59s-4.34-.54-7.62-1.64c-1.35-.39-2.77-.76-4.25-1.11-1.48-.35-2.8-.53-3.96-.53-1.67 0-2.94.26-3.81.77-.87.52-2.01 1.48-3.43 2.89h-.1ZM923.72 266.79c0 .39-.16.58-.48.58-1.22 0-3.12-.06-5.69-.19-2.7-.13-4.63-.19-5.79-.19-1.48 0-3.31.07-5.5.19-2.19.13-3.83.19-4.92.19-.26 0-.39-.19-.39-.58s.13-.58.39-.58c2.19 0 3.76-.21 4.73-.63s1.45-1.17 1.45-2.27-.48-2.61-1.45-4.54l-20.75-43.13 3.09-4.63-18.82 43.62c-.9 2.19-1.35 3.99-1.35 5.4 0 2.06.8 3.6 2.41 4.63 1.61 1.03 3.92 1.55 6.95 1.55.32 0 .48.19.48.58s-.16.58-.48.58c-1.16 0-2.83-.06-5.02-.19-2.45-.13-4.57-.19-6.37-.19-1.67 0-3.67.07-5.98.19-2.06.13-3.73.19-5.02.19-.26 0-.39-.19-.39-.58s.13-.58.39-.58c1.8 0 3.33-.35 4.58-1.06 1.25-.71 2.46-1.93 3.62-3.67 1.16-1.74 2.48-4.31 3.96-7.72l20.55-47.38c.06-.19.29-.31.68-.34.39-.03.61.08.68.34l23.16 47.77c2.25 4.7 4.13 7.88 5.64 9.55 1.51 1.67 3.23 2.51 5.16 2.51.32 0 .48.19.48.58Zm-49.21-26.73h26.25l.68 2.12h-28.08l1.16-2.12ZM964.06 235.43c3.02 1.42 5.36 3.36 7 5.84 1.64 2.48 2.46 5.29 2.46 8.44 0 3.41-.89 6.48-2.65 9.22-1.77 2.73-4.18 4.89-7.24 6.46-3.06 1.58-6.48 2.37-10.28 2.37-2.06 0-4.31-.1-6.75-.29-.9-.06-1.96-.13-3.18-.19-1.22-.06-2.61-.1-4.15-.1l-6.75.1c-1.22.06-2.86.1-4.92.1-.19 0-.29-.19-.29-.58s.1-.58.29-.58c2.25 0 3.92-.18 5.02-.53 1.09-.35 1.85-.98 2.27-1.88.42-.9.63-2.32.63-4.25v-44.68c0-1.93-.21-3.34-.63-4.25-.42-.9-1.16-1.53-2.22-1.88-1.06-.35-2.72-.53-4.97-.53-.13 0-.19-.19-.19-.58s.06-.58.19-.58l4.82.1c2.83.13 5.08.19 6.75.19 1.8 0 3.7-.1 5.69-.29.71-.06 1.56-.13 2.56-.19s2.07-.1 3.23-.1c5.53 0 9.73 1.14 12.59 3.43 2.86 2.28 4.29 5.36 4.29 9.22 0 3.6-1.35 6.75-4.05 9.46-2.7 2.7-6.37 4.6-11 5.69l1.06-1.26c3.92 0 7.4.71 10.42 2.12Zm-18.67-26.54c-.8.32-1.38.95-1.74 1.88-.35.93-.53 2.37-.53 4.3v18.91l-3.19-.77c2.77.19 5.24.29 7.43.29 4.25 0 7.43-1.22 9.55-3.67 2.12-2.44 3.18-5.66 3.18-9.65 0-3.67-.92-6.55-2.75-8.64-1.83-2.09-4.65-3.14-8.44-3.14-1.54 0-2.72.16-3.52.48Zm16.6 53.36c2.22-2.38 3.33-5.79 3.33-10.23 0-4.89-1.35-8.81-4.05-11.77-2.7-2.96-6.53-4.47-11.48-4.54-3.22-.13-6.4.03-9.55.48l2.89-1.06v24.41c0 1.61.22 2.85.67 3.71.45.87 1.29 1.51 2.51 1.93 1.22.42 3.05.63 5.5.63 4.57 0 7.96-1.19 10.18-3.57ZM988.28 212.31c-2.25 2.22-3.92 5.77-5.02 10.66-.07.13-.27.19-.63.19s-.53-.1-.53-.29c.26-1.8.55-4.73.87-8.78.32-4.05.48-7.11.48-9.17 0-.32.19-.48.58-.48s.58.16.58.48c0 1.42 1.77 2.12 5.31 2.12 5.53.19 12 .29 19.4.29 3.79 0 7.82-.06 12.06-.19l6.56-.1c2.38 0 4.12-.16 5.21-.48 1.09-.32 1.8-.96 2.12-1.93.06-.26.27-.39.63-.39s.53.13.53.39c-.19 1.8-.4 4.7-.63 8.68-.23 3.99-.34 7.17-.34 9.55 0 .19-.18.29-.53.29s-.53-.1-.53-.29c-.45-4.95-1.74-8.51-3.86-10.66-2.12-2.15-5.28-3.23-9.46-3.23-2.38 0-4.09.15-5.11.43-1.03.29-1.74.84-2.12 1.64-.39.8-.58 2.14-.58 4v44.48c0 1.99.21 3.44.63 4.34.42.9 1.24 1.51 2.46 1.83 1.22.32 3.18.48 5.89.48.13 0 .19.19.19.58s-.06.58-.19.58c-2.25 0-4.02-.03-5.31-.1l-7.62-.1-7.43.1c-1.29.06-3.09.1-5.4.1-.19 0-.29-.19-.29-.58s.1-.58.29-.58c2.64 0 4.58-.16 5.84-.48s2.11-.95 2.56-1.88c.45-.93.67-2.36.67-4.29v-44.68c0-1.8-.19-3.1-.58-3.91-.39-.8-1.11-1.33-2.17-1.59-1.06-.26-2.78-.39-5.16-.39-3.99 0-7.11 1.11-9.36 3.33ZM1057.9 264.33c-4.66-2.8-8.27-6.59-10.81-11.39-2.54-4.79-3.81-10.02-3.81-15.68 0-6.63 1.67-12.3 5.02-17.03 3.34-4.73 7.64-8.28 12.88-10.66 5.24-2.38 10.6-3.57 16.07-3.57 6.11 0 11.48 1.43 16.12 4.29 4.63 2.86 8.19 6.64 10.66 11.34 2.48 4.7 3.72 9.68 3.72 14.96 0 5.86-1.54 11.23-4.63 16.12-3.09 4.89-7.22 8.75-12.4 11.58-5.18 2.83-10.79 4.24-16.84 4.24s-11.31-1.4-15.97-4.2Zm30.44-1.11c3.28-2.12 5.87-5.22 7.77-9.31 1.9-4.09 2.85-8.96 2.85-14.62 0-5.98-1.05-11.32-3.14-16.02-2.09-4.7-5.08-8.36-8.97-11-3.89-2.64-8.41-3.96-13.56-3.96-6.69 0-11.9 2.27-15.63 6.8-3.73 4.54-5.6 10.79-5.6 18.77 0 6.11 1.06 11.64 3.18 16.6 2.12 4.95 5.1 8.85 8.93 11.68s8.19 4.25 13.08 4.25c4.12 0 7.82-1.06 11.1-3.19ZM1132.54 263.65c.51.93 1.5 1.59 2.94 1.98 1.45.39 3.78.58 7 .58.19 0 .29.19.29.58s-.1.58-.29.58c-2.64 0-4.7-.03-6.18-.1l-8.4-.1-6.66.1c-1.22.06-2.86.1-4.92.1-.19 0-.29-.19-.29-.58s.1-.58.29-.58c2.32 0 3.99-.16 5.02-.48 1.03-.32 1.74-.95 2.12-1.88.39-.93.58-2.36.58-4.29v-44.68c0-1.93-.19-3.34-.58-4.25-.39-.9-1.11-1.53-2.17-1.88-1.06-.35-2.72-.53-4.97-.53-.19 0-.29-.19-.29-.58s.1-.58.29-.58l4.82.1c2.83.13 5.05.19 6.66.19s3.38-.1 5.5-.29c.77 0 1.98-.05 3.62-.15 1.64-.1 3.07-.15 4.29-.15 6.05 0 10.9 1.34 14.57 4 3.67 2.67 5.5 6.71 5.5 12.11 0 4.18-1.05 7.72-3.14 10.61-2.09 2.89-4.76 5.05-8.01 6.46a24.916 24.916 0 0 1-10.08 2.12c-1.87 0-3.41-.16-4.63-.48-.19 0-.29-.16-.29-.48 0-.19.05-.39.15-.58s.21-.26.34-.19c1.03.26 2.15.39 3.38.39 3.86 0 7.11-1.38 9.75-4.15 2.64-2.76 3.96-6.75 3.96-11.97s-1.29-9.05-3.86-11.92c-2.57-2.86-5.98-4.29-10.23-4.29-1.99 0-3.44.15-4.34.43-.9.29-1.54.9-1.93 1.83-.39.93-.58 2.4-.58 4.39v44.1c0 2.06.26 3.55.77 4.49ZM1214.56 206.82c3.15.55 5.66 1.3 7.53 2.27.51.26.85.53 1.01.82.16.29.3.79.43 1.5l1.06 11.58c0 .19-.16.32-.48.39-.32.06-.52-.03-.58-.29-1.67-4.95-4.41-8.67-8.2-11.14-3.8-2.48-8.36-3.72-13.7-3.72-4.7 0-8.78 1.08-12.26 3.23-3.47 2.16-6.13 5.19-7.96 9.12-1.83 3.92-2.75 8.46-2.75 13.61 0 5.98 1.14 11.48 3.43 16.5 2.28 5.02 5.4 8.99 9.36 11.92 3.96 2.93 8.31 4.39 13.08 4.39 9.26 0 15.89-5.27 19.88-15.83 0-.19.16-.29.48-.29.13 0 .27.05.43.15.16.1.24.18.24.24l-1.35 11.58c-.13.77-.27 1.27-.43 1.49-.16.23-.53.47-1.11.72-5.92 2.32-11.96 3.47-18.14 3.47-7.78 0-14.28-1.56-19.49-4.68-5.21-3.12-9.04-7.09-11.48-11.92-2.45-4.82-3.67-9.87-3.67-15.15 0-5.98 1.65-11.31 4.97-15.97 3.31-4.66 7.69-8.3 13.12-10.9 5.44-2.6 11.24-3.91 17.42-3.91 2.96 0 6.01.27 9.17.82ZM1232.51 266.79c0-.39.06-.58.19-.58 2.38 0 4.13-.16 5.26-.48 1.13-.32 1.9-.95 2.32-1.88.42-.93.63-2.36.63-4.29v-44.68c0-1.93-.21-3.34-.63-4.25-.42-.9-1.18-1.53-2.27-1.88-1.09-.35-2.83-.53-5.21-.53-.13 0-.19-.19-.19-.58s.06-.58.19-.58l4.92.1c2.7.13 4.92.19 6.66.19 1.93 0 4.37-.06 7.33-.19l4.82-.1c.19 0 .29.19.29.58s-.1.58-.29.58c-2.32 0-4.04.19-5.16.58-1.13.38-1.88 1.05-2.27 1.98-.39.93-.58 2.37-.58 4.3v44.48c0 1.99.19 3.44.58 4.34.39.9 1.13 1.51 2.22 1.83 1.09.32 2.83.48 5.21.48.19 0 .29.19.29.58s-.1.58-.29.58c-2.06 0-3.7-.03-4.92-.1l-7.24-.1-6.75.1c-1.16.06-2.8.1-4.92.1-.13 0-.19-.19-.19-.58Zm45.26-.15c-.64-.48-1.77-1.78-3.38-3.91-1.61-2.12-4.38-5.98-8.3-11.58l-1.16-1.64c-2.77-3.92-4.79-6.67-6.08-8.25s-2.62-2.68-4-3.33c-1.38-.64-3.2-.96-5.45-.96-.77 0-1.51.03-2.22.1-.71.07-1.35.13-1.93.19l-.1-1.74c4.25-.19 7.53-.29 9.84-.29 3.02 0 5.34.34 6.95 1.01 1.61.67 3.12 1.83 4.53 3.47 1.41 1.64 3.8 4.81 7.14 9.5 3.15 4.38 5.63 7.66 7.43 9.84 1.8 2.19 3.67 3.91 5.6 5.16s4.08 1.91 6.47 1.98c.13 0 .19.19.19.58s-.07.58-.19.58h-13.03c-.9 0-1.67-.24-2.32-.72Zm-22-30.73 11.68-16.21c2.83-3.79 4.25-6.66 4.25-8.59s-1.54-2.89-4.63-2.89c-.13 0-.19-.19-.19-.58s.06-.58.19-.58l4.25.1c2.57.13 4.92.19 7.04.19 2.25 0 4.6-.06 7.04-.19l3.76-.1c.19 0 .29.19.29.58s-.1.58-.29.58c-3.22 0-6.26.89-9.12 2.65-2.86 1.77-5.71 4.49-8.54 8.16l-13.99 17.76-1.74-.87ZM1354.38 206.19c.39 0 .74.07 1.06.19.32.13.48.29.48.48v52.69c0 1.93.21 3.36.63 4.29.42.93 1.18 1.56 2.27 1.88s2.83.48 5.21.48c.2 0 .29.19.29.58s-.09.58-.29.58c-2.06 0-3.7-.03-4.92-.1l-6.95-.1-7.63.1c-1.09.06-2.6.1-4.53.1-.19 0-.29-.19-.29-.58s.1-.58.29-.58c2.51 0 4.33-.16 5.45-.48 1.13-.32 1.88-.93 2.27-1.83.38-.9.58-2.35.58-4.34v-45.74h2.22l-42.84 54.52c-.19.19-.61.29-1.25.29-1.03 0-1.54-.23-1.54-.68v-53.07c0-1.93-.21-3.34-.63-4.25-.42-.9-1.19-1.53-2.32-1.88-1.13-.35-2.88-.53-5.26-.53-.13 0-.19-.19-.19-.58s.06-.58.19-.58l5.11.1c2.96.13 5.24.19 6.85.19 2.06 0 4.57-.06 7.53-.19l4.63-.1c.19 0 .29.19.29.58s-.1.58-.29.58c-2.51 0-4.33.18-5.45.53-1.13.35-1.88.98-2.27 1.88-.39.9-.58 2.32-.58 4.25v46.22h-2.22l42.85-54.52c.19-.26.61-.39 1.25-.39ZM1371.36 266.79c0-.39.1-.58.29-.58 2.31 0 4-.16 5.07-.48 1.06-.32 1.78-.95 2.17-1.88.38-.93.58-2.36.58-4.29v-44.68c0-1.93-.19-3.34-.58-4.25-.39-.9-1.11-1.53-2.17-1.88-1.06-.35-2.75-.53-5.07-.53-.19 0-.29-.19-.29-.58s.1-.58.29-.58h39.37c.64 0 .96.29.96.87l.19 12.16c0 .19-.18.31-.53.34-.35.03-.56-.05-.63-.24-.45-3.54-1.71-6.24-3.76-8.11-2.06-1.86-4.76-2.8-8.1-2.8h-4.92c-2.83 0-4.73.42-5.69 1.25-.96.84-1.45 2.41-1.45 4.73v43.91c0 2.32.43 3.89 1.3 4.73.87.84 2.62 1.25 5.26 1.25h6.37c3.6 0 6.61-1.08 9.02-3.23 2.41-2.15 4.07-5.23 4.97-9.21 0-.13.13-.19.39-.19.19 0 .37.05.53.15.16.1.24.18.24.24-.64 4.63-.96 8.97-.96 13.03 0 .52-.1.89-.29 1.11-.19.23-.58.34-1.16.34h-41.11c-.19 0-.29-.19-.29-.58Zm33.63-27.74c-1.58-1.32-4.07-1.98-7.48-1.98h-14.09v-2.22h14.28c3.28 0 5.69-.56 7.24-1.69 1.54-1.13 2.31-2.88 2.31-5.26 0-.13.18-.19.53-.19s.53.06.53.19l-.1 8.11.1 4.34c.13 2.06.19 3.67.19 4.82 0 .13-.19.19-.58.19s-.58-.06-.58-.19c0-2.76-.79-4.81-2.37-6.13ZM1476.69 241.7a26.116 26.116 0 0 1-9.89 1.93c-5.28 0-9.39-1.4-12.35-4.2-2.96-2.8-4.44-6.61-4.44-11.44v-13.12c0-1.93-.18-3.34-.53-4.25-.35-.9-1.06-1.53-2.12-1.88-1.06-.35-2.69-.53-4.87-.53-.19 0-.29-.19-.29-.58s.1-.58.29-.58c1.42 0 2.54.03 3.38.1 2.32.13 4.86.19 7.62.19 2.32 0 4.82-.06 7.53-.19l3.57-.1c.19 0 .29.19.29.58s-.1.58-.29.58c-1.99 0-3.47.19-4.44.58-.96.38-1.63 1.05-1.98 1.98-.35.93-.53 2.37-.53 4.3v9.55c0 4.89 1.03 8.54 3.09 10.95 2.06 2.41 5.31 3.62 9.75 3.62 4.69 0 9.75-1.42 15.15-4.25l.87.67c-3.35 2.77-6.61 4.79-9.79 6.08Zm6.8-30.93c-.32-.93-.95-1.59-1.88-1.98-.93-.39-2.43-.58-4.49-.58-.19 0-.29-.19-.29-.58s.1-.58.29-.58l4.53.1c2.57.13 4.73.19 6.47.19s4.02-.06 6.85-.19l4.92-.1c.13 0 .19.19.19.58s-.07.58-.19.58c-2.38 0-4.13.18-5.26.53-1.13.35-1.9.98-2.32 1.88-.42.9-.63 2.32-.63 4.25v44.68c0 1.93.21 3.36.63 4.29.42.93 1.19 1.56 2.32 1.88 1.13.32 2.88.48 5.26.48.13 0 .19.19.19.58s-.07.58-.19.58c-2.06 0-3.7-.03-4.92-.1l-6.85-.1-7.14.1c-1.16.06-2.83.1-5.02.1-.13 0-.19-.19-.19-.58s.06-.58.19-.58c2.44 0 4.21-.16 5.31-.48 1.09-.32 1.82-.93 2.17-1.83.35-.9.53-2.35.53-4.34v-44.48c0-1.93-.16-3.36-.48-4.3ZM1571.59 266.79c0 .39-.16.58-.48.58-1.22 0-3.12-.06-5.69-.19-2.7-.13-4.63-.19-5.79-.19-1.48 0-3.31.07-5.5.19-2.19.13-3.83.19-4.92.19-.26 0-.38-.19-.38-.58s.13-.58.38-.58c2.19 0 3.76-.21 4.73-.63s1.45-1.17 1.45-2.27-.48-2.61-1.45-4.54l-20.75-43.13 3.09-4.63-18.82 43.62c-.9 2.19-1.35 3.99-1.35 5.4 0 2.06.8 3.6 2.41 4.63 1.61 1.03 3.92 1.55 6.95 1.55.32 0 .48.19.48.58s-.16.58-.48.58c-1.16 0-2.83-.06-5.02-.19-2.45-.13-4.57-.19-6.37-.19-1.67 0-3.67.07-5.98.19-2.06.13-3.73.19-5.02.19-.26 0-.39-.19-.39-.58s.13-.58.39-.58c1.8 0 3.33-.35 4.58-1.06 1.25-.71 2.46-1.93 3.62-3.67 1.16-1.74 2.47-4.31 3.96-7.72l20.55-47.38c.06-.19.29-.31.67-.34.39-.03.61.08.67.34l23.16 47.77c2.25 4.7 4.13 7.88 5.65 9.55 1.51 1.67 3.23 2.51 5.16 2.51.32 0 .48.19.48.58Zm-49.21-26.73h26.25l.68 2.12h-28.08l1.16-2.12ZM1632.28 206.19c.39 0 .74.07 1.06.19.32.13.48.29.48.48v52.69c0 1.93.21 3.36.63 4.29.42.93 1.17 1.56 2.27 1.88 1.09.32 2.83.48 5.21.48.19 0 .29.19.29.58s-.1.58-.29.58c-2.06 0-3.7-.03-4.92-.1l-6.95-.1-7.62.1c-1.1.06-2.6.1-4.53.1-.19 0-.29-.19-.29-.58s.1-.58.29-.58c2.51 0 4.33-.16 5.45-.48s1.88-.93 2.27-1.83c.38-.9.58-2.35.58-4.34v-45.74h2.22l-42.84 54.52c-.19.19-.61.29-1.26.29-1.03 0-1.54-.23-1.54-.68v-53.07c0-1.93-.21-3.34-.63-4.25-.42-.9-1.19-1.53-2.32-1.88-1.13-.35-2.88-.53-5.26-.53-.13 0-.19-.19-.19-.58s.06-.58.19-.58l5.11.1c2.96.13 5.24.19 6.85.19 2.06 0 4.57-.06 7.53-.19l4.63-.1c.19 0 .29.19.29.58s-.1.58-.29.58c-2.51 0-4.33.18-5.45.53-1.13.35-1.88.98-2.27 1.88-.39.9-.58 2.32-.58 4.25v46.22h-2.22l42.84-54.52c.19-.26.61-.39 1.25-.39ZM1169.54 2168.6h161.15v6.91h-161.15zM797.24 230.35l-1.16 15.74c-.51 6.92 1.93 12.99 5.76 15.4-2.92-.1-5.91.99-8.19 3.27l-7.71 7.71c4.08 4.08 10.83 3.93 15.09-.32s3.79-3.79 3.79-3.79l3.64-3.64c.48.16.96.32 1.45.48 3.75 1.22 7.62 2.47 11.16 6.01 8.1 8.1 4.87 20.42 4.93 20.64l4.26-2.46c-.24-.9 1.19-11.4-7.39-19.98-3.97-3.97-8.33-5.39-12.18-6.63-2.04-.66-3.89-1.26-5.52-2.15l.45-6.04.57-7.74c.64-8.69-3.36-16.07-8.94-16.48Z"/><path d="m792.63 258.49 1.29-.2-.23-1.28c-.01-.08-1.43-7.98-2.49-13.15-.36-1.73-1.22-3.04-2.56-3.9-2.62-1.68-6.12-.88-6.27-.85l-1.27.3 1.16 4.5-5.92.28 4.97 5.61c-1.63.38-3.48 1.13-4.02 2.59-.29.78-.32 2.02 1.17 3.51 4.09 4.09 13.75 2.65 14.16 2.58ZM1698.01 230.35l1.16 15.74c.51 6.92-1.93 12.99-5.76 15.4 2.92-.1 5.91.99 8.19 3.27l7.71 7.71c-4.08 4.08-10.83 3.93-15.09-.32s-3.79-3.79-3.79-3.79l-3.64-3.64c-.48.16-.96.32-1.45.48-3.75 1.22-7.62 2.47-11.16 6.01-8.1 8.1-4.87 20.42-4.93 20.64l-4.26-2.46c.24-.9-1.19-11.4 7.39-19.98 3.97-3.97 8.33-5.39 12.18-6.63 2.04-.66 3.89-1.26 5.52-2.15l-.45-6.04-.57-7.74c-.64-8.69 3.36-16.07 8.94-16.48Z"/><path d="m1702.62 258.49-1.29-.2.23-1.28c.01-.08 1.43-7.98 2.49-13.15.36-1.73 1.22-3.04 2.56-3.9 2.62-1.68 6.12-.88 6.27-.85l1.27.3-1.16 4.5 5.92.28-4.97 5.61c1.63.38 3.48 1.13 4.02 2.59.29.78.32 2.02-1.17 3.51-4.09 4.09-13.75 2.65-14.16 2.58ZM758.96 1915.42c7.68 1.41 13.8 3.45 18.36 6.12 1.41.63 2.31 1.29 2.71 2 .39.71.67 1.92.82 3.65l2.59 26.36c0 .47-.39.75-1.18.82-.79.08-1.26-.12-1.41-.59-3.45-12.08-9.85-20.98-19.18-26.71-9.34-5.73-20.91-8.59-34.71-8.59-11.93 0-22.36 2.63-31.3 7.88-8.94 5.26-15.85 12.67-20.71 22.24-4.87 9.57-7.3 20.63-7.3 33.18 0 14.59 3.02 28.09 9.06 40.48 6.04 12.4 14.2 22.2 24.48 29.42 10.27 7.22 21.38 10.83 33.3 10.83 11.3 0 21.1-3.1 29.42-9.3 8.31-6.2 14.67-15.73 19.06-28.59 0-.47.31-.71.94-.71.47 0 .9.08 1.29.24.39.16.59.39.59.71l-3.29 26.59c-.32 1.88-.67 3.1-1.06 3.65-.39.55-1.29 1.14-2.71 1.76-14.12 5.97-29.03 8.94-44.72 8.94-18.83 0-34.56-3.8-47.19-11.41-12.63-7.61-21.93-17.3-27.89-29.06-5.97-11.77-8.94-24.16-8.94-37.18 0-14.43 4-27.38 12-38.83s18.59-20.32 31.77-26.59 27.3-9.41 42.36-9.41c7.53 0 15.14.71 22.83 2.12ZM843.1 2055.57c-11.38-6.83-20.16-16.08-26.36-27.77-6.2-11.69-9.3-24.43-9.3-38.24 0-16.16 4.08-30.01 12.24-41.54 8.16-11.53 18.63-20.2 31.42-26.01 12.79-5.8 25.85-8.71 39.18-8.71 14.9 0 28.01 3.49 39.3 10.47 11.3 6.98 19.96 16.2 26.01 27.65 6.04 11.46 9.06 23.62 9.06 36.48 0 14.28-3.77 27.38-11.3 39.3-7.53 11.92-17.61 21.34-30.24 28.24-12.63 6.91-26.32 10.35-41.07 10.35s-27.58-3.41-38.95-10.24Zm76.02-2.47c8.55-5.18 15.3-12.74 20.24-22.71 4.94-9.96 7.41-21.92 7.41-35.89 0-14.75-2.75-27.85-8.24-39.3-5.49-11.45-13.22-20.39-23.18-26.83-9.97-6.43-21.61-9.65-34.95-9.65-17.26 0-30.75 5.57-40.48 16.71-9.73 11.14-14.59 26.44-14.59 45.89 0 14.75 2.74 28.2 8.24 40.36 5.49 12.16 13.18 21.73 23.06 28.71 9.89 6.98 21.1 10.47 33.65 10.47 10.67 0 20.28-2.59 28.83-7.77ZM1126.68 2072.98c-5.26-6.67-14.08-10-26.48-10H984.41c-.32 0-.47-.47-.47-1.41s.15-1.41.47-1.41c5.96 0 10.39-.39 13.3-1.18 2.9-.78 4.86-2.31 5.88-4.59 1.02-2.27 1.53-5.77 1.53-10.47v-108.96c0-4.71-.51-8.16-1.53-10.35-1.02-2.2-2.98-3.73-5.88-4.59-2.9-.86-7.34-1.29-13.3-1.29-.32 0-.47-.47-.47-1.41s.15-1.41.47-1.41l11.77.24c6.59.31 11.92.47 16 .47 4.39 0 10.04-.15 16.94-.47l11.77-.24c.31 0 .47.47.47 1.41s-.16 1.41-.47 1.41c-6.12 0-10.59.43-13.41 1.29-2.82.86-4.75 2.39-5.77 4.59-1.02 2.2-1.53 5.65-1.53 10.35v108.49c0 5.34.27 8.87.82 10.59.55 1.73 1.92 2.82 4.12 3.29 2.2.47 6.67.71 13.42.71h44.01c7.06 0 11.8-.24 14.24-.71 2.43-.47 3.96-1.61 4.59-3.41.62-1.8.94-5.29.94-10.47v-108.49c0-4.71-.51-8.16-1.53-10.35-1.02-2.2-2.94-3.73-5.77-4.59-2.82-.86-7.3-1.29-13.42-1.29-.47 0-.71-.47-.71-1.41s.24-1.41.71-1.41l11.77.24c6.9.31 12.47.47 16.71.47s9.65-.15 16.24-.47l11.77-.24c.31 0 .47.47.47 1.41s-.16 1.41-.47 1.41c-6.12 0-10.59.43-13.41 1.29-2.82.86-4.75 2.39-5.77 4.59-1.02 2.2-1.53 5.65-1.53 10.35v108.96c0 5.97.27 9.89.82 11.77.55 1.88 1.92 3.1 4.12 3.65 2.19.55 6.51.82 12.94.82 1.25 0 2 .16 2.24.47.24.32.35 1.1.35 2.35 0 2.67-.08 4.94-.24 6.82-.32 7.84-.47 20.24-.47 37.18 0 .78-.43 1.18-1.29 1.18s-1.29-.39-1.29-1.18c0-16-2.63-27.34-7.88-34.01ZM1244.94 1985.08c7.06 3.45 12.51 8.2 16.36 14.24 3.84 6.04 5.77 12.83 5.77 20.36 0 8.32-2.04 15.85-6.12 22.59-4.08 6.75-9.69 12.04-16.83 15.89-7.14 3.85-15.1 5.77-23.89 5.77-5.18 0-10.83-.23-16.94-.7-2.2-.16-4.79-.31-7.77-.47-2.98-.15-6.28-.24-9.88-.24l-16 .24c-2.82.16-6.83.24-12 .24-.32 0-.47-.47-.47-1.41s.15-1.41.47-1.41c5.96 0 10.36-.43 13.18-1.29 2.82-.86 4.78-2.39 5.88-4.59 1.1-2.2 1.65-5.65 1.65-10.36v-108.96c0-4.71-.51-8.16-1.53-10.35-1.02-2.2-2.94-3.73-5.77-4.59-2.82-.86-7.14-1.29-12.94-1.29-.47 0-.71-.47-.71-1.41s.24-1.41.71-1.41l11.53.24c6.59.31 11.92.47 16 .47 2.82 0 5.45-.08 7.88-.24 2.43-.15 4.51-.31 6.24-.47 5.02-.47 9.57-.71 13.65-.71 13.18 0 23.06 2.86 29.65 8.59s9.88 13.22 9.88 22.47-3.18 16.36-9.53 22.71c-6.35 6.36-14.79 10.87-25.3 13.53l2.59-2.59c9.1 0 17.18 1.73 24.24 5.18Zm-45.89-65.42c-1.88.63-3.29 2.12-4.24 4.47-.94 2.35-1.41 6.12-1.41 11.3v46.13l-7.53-1.88c6.74.47 12.79.7 18.12.7 11.45 0 19.92-2.94 25.42-8.82 5.49-5.88 8.24-13.69 8.24-23.42 0-8.78-2.39-15.89-7.18-21.3-4.79-5.41-12.2-8.12-22.24-8.12-4.24 0-7.3.32-9.18.94Zm43.19 131.2c5.57-5.88 8.35-14.32 8.35-25.3 0-11.92-3.49-21.57-10.47-28.95-6.98-7.37-16.59-11.14-28.83-11.29-8.94-.31-17.18.08-24.71 1.18l6.83-2.59v60.01c0 4.08.59 7.22 1.77 9.41 1.18 2.2 3.45 3.81 6.82 4.82 3.37 1.02 8.27 1.53 14.71 1.53 11.45 0 19.96-2.94 25.54-8.83ZM1288.48 2061.57c0-.94.15-1.41.47-1.41 5.96 0 10.31-.39 13.06-1.18 2.74-.78 4.63-2.31 5.65-4.59 1.02-2.27 1.53-5.77 1.53-10.47v-108.96c0-4.71-.51-8.16-1.53-10.35-1.02-2.2-2.91-3.73-5.65-4.59-2.75-.86-7.1-1.29-13.06-1.29-.31 0-.47-.47-.47-1.41s.15-1.41.47-1.41h94.61c1.41 0 2.12.7 2.12 2.12l.47 28.95c0 .47-.43.75-1.29.82-.86.08-1.29-.12-1.29-.59-.47-8.31-2.98-14.79-7.53-19.41-4.55-4.63-10.59-6.94-18.12-6.94h-14.36c-5.49 0-9.57.43-12.24 1.29-2.67.86-4.51 2.32-5.53 4.35-1.02 2.04-1.53 5.26-1.53 9.65v106.84c0 4.24.51 7.41 1.53 9.53 1.02 2.12 2.78 3.57 5.29 4.35 2.51.79 6.43 1.18 11.77 1.18h18.83c7.53 0 13.8-2.67 18.83-8 5.02-5.33 8.39-12.71 10.12-22.12 0-.31.31-.47.94-.47.47 0 .9.12 1.29.35.39.24.59.43.59.59-1.41 9.89-2.12 20.24-2.12 31.07 0 1.26-.28 2.16-.82 2.71-.55.55-1.53.82-2.94.82h-98.61c-.31 0-.47-.47-.47-1.41Zm80.84-68.25c-3.38-2.98-8.98-4.47-16.83-4.47h-35.3v-4.94h36.01c7.53 0 12.9-1.25 16.12-3.77 3.21-2.51 4.82-6.74 4.82-12.71 0-.31.47-.47 1.41-.47s1.41.16 1.41.47l-.24 19.06c0 4.55.08 8 .24 10.35l.24 11.3c0 .32-.47.47-1.41.47s-1.41-.15-1.41-.47c0-6.9-1.69-11.84-5.06-14.83ZM1427.45 1927.66c-4.94 5.02-8.51 13.57-10.71 25.65 0 .32-.44.47-1.29.47s-1.29-.15-1.29-.47c.63-5.65 1.33-13.02 2.12-22.12.78-9.1 1.18-15.92 1.18-20.48 0-.78.43-1.18 1.29-1.18s1.29.39 1.29 1.18c0 3.45 4.24 5.18 12.71 5.18 13.49.47 29.26.7 47.3.7 9.26 0 19.06-.15 29.42-.47l16-.24c5.65 0 9.84-.39 12.59-1.18 2.74-.78 4.51-2.35 5.29-4.71.15-.63.63-.94 1.41-.94s1.18.32 1.18.94c-.47 4.55-.94 11.46-1.41 20.71-.47 9.26-.71 16.79-.71 22.59 0 .32-.47.47-1.41.47s-1.41-.15-1.41-.47c-.47-12.24-2.98-20.83-7.53-25.77-4.55-4.94-12.08-7.41-22.59-7.41-7.06 0-12.08.32-15.06.94-2.98.63-5.02 1.96-6.12 4-1.1 2.04-1.65 5.49-1.65 10.35v108.49c0 4.87.55 8.4 1.65 10.59 1.1 2.2 3.21 3.69 6.35 4.47 3.14.79 8.08 1.18 14.83 1.18.47 0 .71.47.71 1.41s-.24 1.41-.71 1.41c-5.18 0-9.34-.08-12.47-.24l-18.36-.24-17.65.24c-3.14.16-7.45.24-12.94.24-.32 0-.47-.47-.47-1.41s.15-1.41.47-1.41c6.74 0 11.69-.39 14.83-1.18 3.14-.78 5.29-2.31 6.47-4.59 1.18-2.27 1.76-5.77 1.76-10.47v-108.96c0-4.86-.55-8.27-1.65-10.24-1.1-1.96-3.14-3.21-6.12-3.77-2.98-.55-8.08-.82-15.3-.82-9.73 0-17.06 2.51-22.01 7.53ZM1702.68 1914.01c2.35 0 3.53.55 3.53 1.65v128.26c0 4.71.51 8.2 1.53 10.47 1.02 2.28 2.94 3.81 5.77 4.59 2.82.79 7.21 1.18 13.18 1.18.47 0 .7.47.7 1.41s-.24 1.41-.7 1.41c-4.87 0-8.79-.08-11.77-.24l-16.24-.24-17.18.24c-2.67.16-6.35.24-11.06.24-.47 0-.7-.47-.7-1.41s.24-1.41.7-1.41c6.12 0 10.59-.39 13.42-1.18 2.82-.78 4.71-2.27 5.65-4.47.94-2.2 1.41-5.73 1.41-10.59v-115.08l4.47.94-105.67 135.32c-.47.63-1.41.94-2.83.94-2.35 0-3.53-.55-3.53-1.65v-129.44c0-4.71-.51-8.16-1.53-10.35-1.02-2.2-2.98-3.73-5.88-4.59-2.91-.86-7.34-1.29-13.3-1.29-.31 0-.47-.47-.47-1.41s.15-1.41.47-1.41l12.24.24c6.59.31 11.92.47 16 .47 4.55 0 10.27-.15 17.18-.47l11.06-.24c.31 0 .47.47.47 1.41s-.16 1.41-.47 1.41c-6.12 0-10.59.43-13.42 1.29-2.83.86-4.75 2.39-5.77 4.59-1.02 2.2-1.53 5.65-1.53 10.35v116.49l-4.24-.94 105.9-135.79c.47-.47 1.33-.7 2.59-.7ZM1745.04 2061.57c0-.94.15-1.41.47-1.41 5.96 0 10.31-.39 13.06-1.18 2.74-.78 4.63-2.31 5.65-4.59 1.02-2.27 1.53-5.77 1.53-10.47v-108.96c0-4.71-.51-8.16-1.53-10.35-1.02-2.2-2.91-3.73-5.65-4.59-2.75-.86-7.1-1.29-13.06-1.29-.31 0-.47-.47-.47-1.41s.15-1.41.47-1.41h94.61c1.41 0 2.12.7 2.12 2.12l.47 28.95c0 .47-.43.75-1.29.82-.86.08-1.29-.12-1.29-.59-.47-8.31-2.98-14.79-7.53-19.41-4.55-4.63-10.59-6.94-18.12-6.94h-14.36c-5.49 0-9.57.43-12.24 1.29-2.67.86-4.51 2.32-5.53 4.35-1.02 2.04-1.53 5.26-1.53 9.65v106.84c0 4.24.51 7.41 1.53 9.53 1.02 2.12 2.78 3.57 5.29 4.35 2.51.79 6.43 1.18 11.77 1.18h18.83c7.53 0 13.8-2.67 18.83-8 5.02-5.33 8.39-12.71 10.12-22.12 0-.31.31-.47.94-.47.47 0 .9.12 1.29.35.39.24.59.43.59.59-1.41 9.89-2.12 20.24-2.12 31.07 0 1.26-.28 2.16-.82 2.71-.55.55-1.53.82-2.94.82h-98.61c-.31 0-.47-.47-.47-1.41Zm80.84-68.25c-3.38-2.98-8.98-4.47-16.83-4.47h-35.3v-4.94h36.01c7.53 0 12.9-1.25 16.12-3.77 3.21-2.51 4.82-6.74 4.82-12.71 0-.31.47-.47 1.41-.47s1.41.16 1.41.47l-.24 19.06c0 4.55.08 8 .24 10.35l.24 11.3c0 .32-.47.47-1.41.47s-1.41-.15-1.41-.47c0-6.9-1.69-11.84-5.06-14.83Z"/><path d="M914.15 1987.42c-16.44 0-29.76-13.33-29.76-29.76 0 16.44-13.33 29.76-29.76 29.76 16.44 0 29.76 13.33 29.76 29.76 0-16.44 13.33-29.76 29.76-29.76ZM875.88 2255c.76.09 1.55.16 2.38.16 1.93 0 4.06-.26 6.34-.85 1.39-.36 2.62-.79 3.72-1.25-.05 3.06-.87 5.93-4.49 9.3-4.48 4.16-9.17 4.84-11.79 3.58-1.01-2.58-.13-6.92 3.85-10.93ZM880.51 2238.55c-.62.16-1.22.34-1.79.54-5.68-4.42-7.66-9.76-6.91-13.33 3.27-2.31 9.8-2.48 16.85 2.14 6.69 4.39 7.97 8.72 8.58 13.77-4.24-3.03-8.57-5.24-16.73-3.12Z"/><path d="M868.51 2250.08c.6-3.57 4.66-8.19 12.35-10.19 7.62-1.98 11.51 0 15.61 2.93-2.15 4.55-4.58 8.18-12.2 10.16-7.69 2-13.49-.06-15.75-2.89ZM1279.19 1124.1l-29.07-58.15-29.07 58.15a33.3 33.3 0 0 0-3.52 14.92c0 18 14.59 32.6 32.6 32.6 18 0 32.6-14.59 32.6-32.6 0-5.18-1.21-10.29-3.52-14.92Zm-26.33 34.26c-12.34 0-22.38-10.04-22.38-22.38h8.29c0 7.77 6.32 14.09 14.09 14.09v8.29Zm-63.3 406.83c-2.58 0-5.16-.13-7.75-.4l.72-6.87c32.74 3.43 66.94-19.2 67.28-19.43l3.85 5.74c-1.37.92-31.61 20.96-64.1 20.96Zm540.97-131.64V707.73s-.09-11.21-.26-21.72c-.12-7.37-1.41-27.98-2.09-33.41-16.46-132.16-118.02-238.98-246.97-259.79-10.13-1.63-28.25-3.54-45.9-4.12-19.33-.63-49.84-.53-50.13-.53h-270.13c-.29 0-30.8-.1-50.13.53-17.65.58-35.77 2.49-45.9 4.12-128.95 20.8-230.51 127.63-246.97 259.79-.68 5.43-1.97 26.03-2.09 33.41-.17 10.51-.26 21.72-.26 21.72v725.82c0 .05-.05 8.29.13 18.71.12 7.36 1.41 27.96 2.09 33.41 16.46 132.15 118.02 238.98 246.97 259.78 10.14 1.63 28.26 3.54 45.9 4.12 14.64.48 35.71.54 45.19.54h280.28c9.48 0 30.55-.06 45.19-.54 17.63-.58 35.76-2.49 45.9-4.12 128.95-20.8 230.51-127.63 246.97-259.78.68-5.44 1.97-26.05 2.09-33.41.17-10.42.13-18.66.13-18.71Zm-58.1-904.97-256.77 32.07c1.48-2.36 2.35-3.73 2.41-3.84l-5.83-3.7c-2.45 3.87-60.21 95.15-75.27 133.37-5.23 13.29-8.18 29.17-8.7 45.03l-10.16 6.87-.04 1.05c-.49 13.11 4.26 19.5 7.9 22.47-5.55-1.2-12.43-5.32-17.06-17.2-6.85-17.58-4.58-60.05 4.58-85.74 9.36-26.24.68-45.16.31-45.95l-6.25 2.94c.02.05.72 1.6 1.47 4.35-6.35-2.54-11.47-6.78-15.24-10.78l.04-.3-.36-.04c-4.71-5.08-7.22-9.68-7.27-9.78l-6.1 3.24c.21.39 2.37 4.39 6.44 9.19l-9.64 76.82 20.01 55.9.11.27c5.26 11.51 2.66 19.49-.94 24.46.97-4.66.55-11.98-6.17-21.43l-.61-.86-10.53-.14-30.87-63.29-2.39-66.2-.12-.41c-.04-.14-4.05-14.4-.56-30.99 3.34-15.88 23.76-27.9 23.96-28.02l-1.73-2.99-1.73-2.99c-.95.55-23.28 13.67-27.26 32.57-3.53 16.79-.15 31.18.57 33.89l.88 24.41c-2.14 7.79-28.59 104.06-35.7 122.69-3.56 9.34-9.76 11.89-14.62 12.3 3.87-2.53 9.46-8.53 9.91-22.17l.03-1.05-9.15-7.17 29.17-181.91-6.82-1.09-2.44 15.24c-12.71 4.25-83.07 27.8-100.06 33.35-8.91 2.91-15.01-1.07-18.65-5.11 1.7.66 3.96 1.22 6.75 1.22 4.35 0 10-1.34 16.84-5.73l.89-.57.71-11.38 137.81-64.71c57.6-27.04 262.42-77.7 323.76-88.64 37.82 22.47 70.18 53.53 94.5 90.47Zm-342.36 231.14c-2.47-1.42-8.07-6.08-7.88-19.09l6-4.06c0 7.91.62 15.73 1.88 23.15Zm-25.98 59.77c-4.22 4.55-12.07 6.67-24.71 6.67s-20.12 2.76-25.14 10.68c.71-7.29 2.09-12.15 4.74-14.81 2.8-2.81 7.57-3.96 16.45-3.96 1.06 0 2.13.04 3.21.07 6.8.22 15.26.5 21.85-8.46 3.59-4.88 6.33-12.19 8.33-22.25.98 15.54.71 26.2-4.72 32.06Zm-5.4-90.44-14.74-41.18 8.75-69.74c4.67 4.1 10.61 7.94 17.79 9.95.82 7.19.58 17.11-3.5 28.55-7.36 20.63-10.42 50.66-8.3 72.41Zm-7.82 42.63-10.07-20.65 6.32.09c7.58 11.18 5.01 18.26 3.75 20.56Zm.99 2.02Zm-106.32 1.45 3.69-23.04 5.68 4.45c-.74 13.29-6.91 17.45-9.38 18.59Zm-45.21-60.05.5-.92-5.35-11.4 71.38-104.2-8.54 53.27c-4.44 5.43-34.52 42.44-50.83 66.98-5.16 7.76-10.88 12.08-16.98 12.83-3.26.4-6.27-.28-8.71-1.26 4.63-.61 12.13-3.56 18.54-15.29Zm-21.02 11.28 13.46-19.64 3.42 7.28c-6.76 11.73-14.28 12.49-16.88 12.36Zm-28.19-123.07 20.98-9.85-.44 7c-11.24 6.84-18.13 4.25-20.54 2.85Zm-72.34 1132.33c-39.53-6.62-76.36-21.62-108.71-43.1 17.04-16.95 115.47-114.58 160.37-153.08l.18-.16c.53-.52 54.12-52.41 139.91-52.41h118.95c.06 0 5.63.02 11.02 1.64 9.29 2.79 9.29 7.5 9.29 9.05 0 9.21-29.05 14.03-44.63 14.03h-32.02c-2.38-.14-18.66-.79-25.48 6.64-4.18-4.59-6.51-7.73-6.58-7.84l-5.59 4.06c1.1 1.51 26.1 35.43 64.14 45.98l-18.74 17.78c-2.34-.17-6.71-.18-11.86 1.23-29.55-10.62-46.77 9.46-46.95 9.66l5.3 4.44c.52-.62 11.64-13.35 31.74-9.67-3.47 2.23-6.94 5.31-10.12 9.52l5.52 4.16c11.11-14.74 26.37-12.44 27-12.33l1.71.29 27.87-26.44.27-.57c.06-.11 5.62-11.61 13.11-22.27 3.59-5.11 10.87-4.96 16.28-3.97-4.21.64-11.68 3.37-16.23 14.32l-.48 1.15 7.65 9.27-6.48 12.89-28.91 32.63-48.97 24.43.08.16-147.05-35.87-1.64 6.71 21.05 5.13-100.99 132.55Zm323.33-199.37-8.39 16.69-4.88-5.91c4.16-8.95 10.5-10.53 13.27-10.77Zm78.36 28.32-.96.42-2.22 10.13-22.53 7.18 21.59-23.44c1.46-.38 3.3-.86 4.76-1.23 8.48-2.14 14.12 1.54 17.56 5.52-3.62-1.55-9.56-2.39-18.19 1.41Zm18.64 3.6-17.27 5.5 1.25-5.71c9.31-3.8 14.27-1.15 16.01.21Zm-26.67-15.27-1.74-5.6c6.23-7.93 11.85-8.07 14.03-7.74l-12.29 13.34Zm-5.71-7.24-.63.84 3.09 9.92-45.57 49.48-22.81 3.65 40.37-37.08 7.32-17.22c.52-.73 3.45-4.5 15.31-15.89 6.28-6.03 12.95-5.66 17.91-3.93-3.9.47-9.43 2.71-14.99 10.22Zm-18.29-7.87-3.62-4.95c3.33-9.54 8.62-11.48 10.78-11.88l-7.16 16.83Zm-7.9-5.21-.32 1 6.33 8.65-11.13 26.17-39.02 35.83-68.99 20.4 33.17-16.55 19.94-22.51 36.28-23.02.42-1c.08-.18 7.91-18.68 17.76-35.32 4.7-7.94 11.76-9.08 17.13-8.51-3.62 1.52-8.56 5.33-11.58 14.84Zm340.35-330.57-43.95-29.57-38.76 22.45-50.24-33.8-68.14 39.47-16.53-11.12-54.64 31.65 3.46 5.98 50.9-29.49 57.86 38.93 3.86-5.73-38.54-25.93 61.49-35.62 73.63 49.54 3.86-5.73-20.6-13.86 32.11-18.6 44.23 29.75v56.17c-7.2 0-10.73-1.43-14.46-2.94-3.99-1.62-8.51-3.45-17.07-3.45s-13.08 1.83-17.07 3.45c-3.74 1.51-7.26 2.94-14.48 2.94s-10.74-1.43-14.48-2.94c-3.99-1.62-8.51-3.45-17.07-3.45s-13.08 1.83-17.07 3.45c-3.73 1.51-7.26 2.94-14.48 2.94s-10.74-1.43-14.48-2.94c-3.99-1.62-8.51-3.45-17.07-3.45s-13.08 1.83-17.07 3.45c-3.74 1.51-7.26 2.94-14.48 2.94s-10.74-1.43-14.48-2.94c-3.99-1.62-8.51-3.45-17.07-3.45s-13.08 1.83-17.07 3.45c-3.74 1.51-7.26 2.94-14.48 2.94v6.91c8.56 0 13.08-1.83 17.07-3.45 3.74-1.51 7.26-2.94 14.48-2.94s10.74 1.43 14.48 2.94c3.99 1.62 8.51 3.45 17.07 3.45s13.08-1.83 17.07-3.45c3.74-1.51 7.26-2.94 14.48-2.94s10.74 1.43 14.48 2.94c3.99 1.62 8.51 3.45 17.07 3.45s13.08-1.83 17.07-3.45c3.74-1.51 7.26-2.94 14.48-2.94s10.74 1.43 14.48 2.94c3.99 1.62 8.51 3.45 17.07 3.45s13.08-1.83 17.07-3.45c3.74-1.51 7.26-2.94 14.48-2.94s10.74 1.43 14.48 2.94c3.99 1.62 8.5 3.44 17.05 3.45v83.42a920.87 920.87 0 0 1-36.7 9.76l-14.04 3.3c-9.43 2.14-19.44 4.24-29.83 6.22 2.03 2.04 3.12 4.27 3.29 6.22-2.42 3.1-8.53 5.11-16.47 2.75-4.27-1.27-6.89-3.01-8.73-5.12-33.94 5.48-70.89 9.08-106.55 7.9l-11.16-.54c-23.33-1.46-45.87-5.13-66.4-11.84-.62 1.26-1.68 2.39-3.27 3.21-.18.1-.37.19-.56.28-.46.23-.92.44-1.36.63-6.61 2.84-11.77-4.39-9.59-9.66a162.02 162.02 0 0 1-12.47-5.91 197.62 197.62 0 0 1-9.02 15.59c18.13 12.49 38.49 25.07 61.62 36.24l11.85 5.48a382.78 382.78 0 0 0 17.72 7.3c.97-1.17 2.39-2.04 4.28-2.36.47-.08.97-.15 1.48-.21.21-.02.42-.05.62-.07 5.31-.51 8.15 3.76 7.93 7.82 16.77 5.66 34.77 10.4 54.11 13.85-3.55-5.43 2.35-13.96 9.37-10.53.43.21.87.44 1.33.69.17.1.34.19.51.29 4.91 2.86 4.37 8.5 1.34 11.59 13.07 1.89 26.72 3.2 41.01 3.8l14.91.36c1.06 0 2.09.04 3.16.04h9.56c-1.85-1.92-2.95-4.17-4-6.66 4.43-3 8.53-5.11 16.47-2.75 6.72 1.99 10.62 5.88 11.87 9.41h31.1c-.26-3.25 1.4-6.63 5.46-7.57a27.187 27.187 0 0 1 2.09-.4c5.55-.86 8.67 3.72 8.36 7.97h10.52c-.26 8.18-1.38 25.8-1.97 30.52a291.72 291.72 0 0 1-2.98 18.83c-24.66-1.63-115.42-8.91-183.38-30.92-70.06-22.69-119.52-55.83-146.27-76.15-1.63 2.03-3.29 4.02-4.99 5.97 27.08 20.61 77.42 54.43 148.87 77.57 67.79 21.95 157.76 29.41 184.19 31.2-25.3 115.49-118.37 206.22-234.37 224.94-9.52 1.53-27.56 3.44-44.68 4-19.15.63-49.5.53-49.82.53h-270.4c-.32 0-30.66.1-49.82-.53-13.94-.46-28.48-1.8-38.55-3.12l100.52-131.94 125.99 30.74.9.22 39.48-11.67 73.63-11.8 18.21-19.78 65.49-20.87-1.15-3.34c-2.48-7.19-10.75-19.18-25.27-18.21l12.21-13.26-2.66-2.33c-6.33-5.56-21.78-12.75-34.89-.16-1 .96-1.91 1.85-2.8 2.71l9.41-22.13-2.97-1.43c-7.59-3.66-24.4-6.45-33.65 9.19-8.76 14.8-15.95 31.01-17.75 35.15l-18.09 11.48 20.27-40.32-3.51-1.39c-.89-.35-21.93-8.5-31.15 4.61-6.83 9.71-11.96 19.77-13.33 22.52-23.79-5.32-42.98-21.28-54.05-32.54l1.09.89c3.31-4.07 14.19-5.01 20.27-4.63h32.34c.52 0 51.54-.56 51.54-20.93 0-3.95-1.42-7.37-4.21-10.16-7.41-7.39-22.36-7.39-23.01-7.43h-118.95c-86.91 0-141.93 51.69-144.66 54.31-46.03 39.49-147.62 140.38-161.61 154.3-66-46.19-112.24-119.82-122.74-204.11-.64-5.12-1.9-25.39-2.01-32.38-.17-10.3-.13-18.44-.13-18.52v-142.82c3.65-1.04 7.55-2.12 11.66-3.23.64-3.32 2.82-7.21 7.06-10.71 6.39-5.28 10.99-4.93 16.24-3.9 0 3.19-.19 6.1-1.69 9.05.21-.05.4-.1.61-.15l14.04-3.3c28.24-6.42 61.46-12.53 95.79-15.78-1.93-4.99 2.26-11.89 8.98-9.84l.57.18c.49.16.96.33 1.41.5 3.75 1.45 4.97 4.83 4.41 7.93 15.72-1.07 31.55-1.49 47.13-.97l11.16.54c11.13.7 22.08 1.9 32.72 3.69-.13-3.64 2.15-7.35 6.92-7.56.21 0 .42-.02.63-.02.52-.01 1.02 0 1.5 0 6.03.18 8.15 6.36 6.2 10.62 7.04 1.63 13.9 3.58 20.54 5.83l-7.46-30.76c-6.43-3.55-13.08-7.01-19.99-10.35l-11.85-5.48a375.89 375.89 0 0 0-52.16-18.63c-.27 3.41-2.63 6.64-7 6.69-.48 0-.98 0-1.5-.02-.2 0-.4-.02-.6-.03-6.04-.36-8-6.3-6.16-10.5-22.15-5.12-46.16-8.57-72.31-9.66l-14.91-.36c-1.06 0-2.09-.04-3.16-.04h-25.18c1.52 1.6 2.6 3.46 3.65 5.5-4.19 3.33-8.1 5.76-16.21 4.02-7.56-1.62-11.89-5.81-12.96-9.52h-38.08v-50.87c57.66 2.63 181.9 22.16 271.35 70.16l-2.43-10.04c-90.33-46.38-212-65.34-268.91-67.9v-133.51c3.1-.79 6.3-1.2 9.55-1.2 21.36 0 38.81 17.38 38.89 38.74v2.49l2.38.78a38.807 38.807 0 0 1 26.8 36.97h6.91c0-19.04-11.66-35.91-29.25-42.71-1.37-24.02-21.39-43.17-45.73-43.17-3.24 0-6.43.34-9.55 1v-80.33a57.803 57.803 0 0 1 24.67-5.48c25.78 0 48.18 16.55 55.72 41.19l.8 2.62 3.21-.22c.66-.05 1.32-.1 1.99-.1 13.84 0 26.33 7.7 32.59 20.1l1.08 2.14 2.38-.26c1.44-.16 2.76-.23 4.04-.23 18.51 0 33.84 13.84 36.2 31.72-2.64-.5-5.34-.78-8.11-.78a42.77 42.77 0 0 0-18.26 4.06l2.93 6.25c4.82-2.26 9.98-3.41 15.32-3.41 15.99 0 29.88 10.26 34.56 25.54l6.61-2.02c-4.01-13.09-13.71-23.06-25.92-27.65-1.46-22.64-20.33-40.62-43.33-40.62-.8 0-1.61.02-2.45.08-7.75-13.52-21.97-21.82-37.64-21.82h-.25c-9.17-26.13-33.55-43.49-61.48-43.49-8.56 0-16.84 1.64-24.67 4.85V707.78s.09-11.15.26-21.6c.12-7 1.38-27.27 2.01-32.37 15.94-127.93 114.19-231.33 238.93-251.45 9.51-1.53 27.55-3.44 44.68-4 19.15-.63 49.49-.53 49.8-.53H1385.13c.31 0 30.65-.1 49.8.53 17.13.56 35.17 2.47 44.68 4 31.77 5.12 61.81 15.66 89.21 30.61-67.32 12.75-261.21 61.04-317.65 87.53l-171.91 80.72 1.3 3.06c2.73 6.46 10.66 16.67 23.2 16.67 2.53 0 5.25-.42 8.15-1.36 15.02-4.9 71.63-23.83 93.44-31.13l-96.76 141.25 2.18 2.03c.33.31 7.61 6.94 17.71 6.94.88 0 1.78-.05 2.7-.16 8.23-.98 15.63-6.32 21.98-15.87 12.08-18.16 31.85-43.31 42.88-57.09l-18.79 117.2 2.79.92c1.98.66 4.56 1.13 7.4 1.13 7.83 0 17.7-3.58 22.75-16.8 5.43-14.23 21.3-70.6 30.08-102.21l.7 19.48 47.88 98.18 3.14-1.61c.14-.07 8.21-4.35 12.41-13.35-1.72 18.51-4.88 30.72-9.56 37.09-4.44 6.03-9.57 5.86-16.06 5.65-1.15-.04-2.3-.08-3.43-.08-10.92 0-17.1 1.73-21.34 5.99-7.61 7.63-7.57 21.94-7.48 53.28.01 3.59.02 7.4.02 11.44v43.71h-44.34l10.13 5.85-8.44 2.91c-1.73.59-3.44 1.19-5.14 1.82l-18.32-10.57h-1.29a73.99 73.99 0 0 0-22.54 3.53l26.78 13.63-8.73 4.25c-1.12.59-2.24 1.17-3.34 1.77l-27.71-14.11c-5.89 3.22-11.28 7.23-16.07 11.86l28.7 11.09-7.51 5.05c-1.11.76-2.22 1.53-3.3 2.29l-25.51-9.86c-9.46 12.47-15.08 27.99-15.08 44.81v3.45h74.32c29.81 0 55.56-17.65 67.39-43.05v31.43c0 28.76 23.39 52.15 52.14 52.15h52.14v-3.45c0-11.45-3.72-22.04-10-30.65l-17.2 6.65c-1.1-.79-2.25-1.59-3.41-2.39l-4.68-3.15 19.68-7.6a52.645 52.645 0 0 0-10.28-7.88l-19.08 9.71c-.89-.49-1.81-.97-2.72-1.45l-.06.03-6.21-3.02 18.74-9.54c-4.65-1.6-9.6-2.57-14.75-2.79l-13.78 7.96c-1.02-.39-2.06-.74-3.1-1.1l-.12.07-6.9-2.38 7.97-4.6h-31.51v-58.64c0-.2.02-.41.02-.61v-3.45h-.02v-9.47c11.82 25.43 37.59 43.11 67.42 43.11h74.32v-3.45c0-16.82-5.62-32.34-15.08-44.81l-25.51 9.86c-1.08-.76-2.18-1.52-3.29-2.28l-7.54-5.07 28.7-11.09a74.55 74.55 0 0 0-16.05-11.85l-27.71 14.11c-1.13-.61-2.27-1.21-3.42-1.81l-8.67-4.22 26.77-13.62c-7.11-2.27-14.66-3.53-22.51-3.53h-1.29l-18.32 10.57c-1.7-.63-3.42-1.23-5.14-1.82h.01l-8.47-2.92 10.11-5.83h-44.28c.64-46.22 9.04-48.38 25.8-48.38 14.9 0 24.09-2.74 29.78-8.88 8.71-9.4 7.53-24.97 5.74-48.54-.28-3.7-.58-7.74-.87-11.98 5.08 3.96 10.71 5.59 15.98 5.59 1.86 0 3.67-.2 5.39-.57l3.43-.73-.78-3.42c-5.44-23.82-3.34-53.47 5.35-75.54 11.72-29.75 51.25-94.56 67.55-120.82l265.6-33.17c21.95 35.3 36.69 75.64 42.06 118.77.63 5.1 1.9 25.37 2.01 32.37.17 10.45.26 21.6.26 21.6v494.26Zm-25.86 194.6c.32 3.92-2.8 9.54-10.24 13.19-7.44 3.65-11.83 2.26-16.7.04 1.22-5.21 2.8-9.54 10.24-13.19 7.44-3.65 13.79-2.7 16.7-.04Zm-75.91 27.11c-.18.1-.37.19-.56.28-.46.23-.92.44-1.36.63-8.28 3.56-14.31-8.7-6.43-13.08.42-.23.86-.46 1.33-.69.18-.09.36-.17.54-.26 8.58-3.99 14.88 8.76 6.48 13.12Zm-62.55-27.53c-.72 5.3-1.88 9.76-8.94 14.1s-13.47 3.99-16.62 1.63c-.69-3.87 1.88-9.76 8.94-14.1s11.56-3.37 16.62-1.63Zm-76.49 9.29c-2.61 2.94-8.83 4.57-16.61 1.73-7.78-2.85-9.81-6.98-11.58-12.03 4.61-2.72 8.83-4.57 16.61-1.73 7.78 2.85 11.48 8.1 11.58 12.03Zm-682.63-181.71c.15-.12.31-.24.47-.36.41-.31.82-.6 1.22-.87 7.47-5.04 15.68 5.89 8.75 11.66-.37.31-.76.62-1.18.93-.16.12-.32.24-.48.35-7.67 5.51-16.22-5.88-8.79-11.71Zm53.7 13.47c2.44-3.09 8.55-5.06 16.49-2.66 7.93 2.4 10.19 6.42 12.24 11.36-4.45 2.97-8.55 5.06-16.49 2.66-7.93-2.4-11.92-7.43-12.24-11.36Zm48.69-29.85c5.03-1.83 9.51-2.89 16.65 1.33 7.14 4.22 9.82 10.05 9.19 13.94-3.1 2.42-9.51 2.89-16.65-1.33-7.14-4.22-8.37-8.65-9.19-13.94Zm83.57 29.19c4.26-3.23 8.23-5.57 16.3-3.65 8.06 1.92 12.35 6.71 12.9 10.6-2.25 3.23-8.23 5.57-16.3 3.65-8.06-1.92-10.56-5.8-12.9-10.6Zm177.68-275.48c9.22-5.78 19.39-11.35 30.24-16.05l-21.06 51.35h-24.13l14.96-35.3Zm-19.46 35.3h-25.9c7.13-6.82 20.97-19.18 39.15-31.29l-13.26 31.29Zm55.09-53.59c9.12-3.63 18.67-6.59 28.51-8.54L1200.35 993a66.997 66.997 0 0 1-21.15 3.42h-4.47l21.98-53.59Zm33.38-9.41c2.37-.38 4.75-.7 7.15-.95h9.27c-1.33 26.27-17.79 48.61-40.81 58.5l24.39-57.55Zm88.64 103.53h-14.36l-13.57-33.08c6.35 2.8 12.35 6.02 17.89 9.39l10.04 23.69Zm-3.87-19.76c11.1 7.38 19.84 14.9 25.07 19.76h-16.7l-8.37-19.76Zm-14.97 19.76h-1.16c-4.99 0-9.78-.82-14.27-2.32l-16.17-38.17c5.88 1.25 11.61 3.03 17.12 5.17l14.49 35.32Zm-20.88-4.54c-14.11-6.86-24.15-20.84-25.39-37.24h6.9c.96.12 1.92.25 2.88.4l15.61 36.84Zm74.97-80.11h-24.13l-21.06-51.35c10.85 4.7 21.01 10.27 30.23 16.05l14.96 35.3Zm-8.76-31.29c18.18 12.11 32.02 24.47 39.15 31.29h-25.9l-13.26-31.29Zm-19.85 31.29h-4.47c-7.39 0-14.49-1.21-21.15-3.42l-24.88-58.71c9.84 1.94 19.39 4.91 28.51 8.54l21.98 53.59Zm-30.98-5.45c-23.02-9.89-39.47-32.23-40.81-58.5h9.27c2.4.25 4.78.57 7.15.95l24.39 57.55ZM977.72 755.86l19.59-19.59 4.88 4.88-19.59 19.59a33.108 33.108 0 0 0-4.88-4.88Zm-20.93 59.05c1.17 0 2.32-.06 3.45-.18v40.16h-6.91v-40.16c1.14.12 2.29.18 3.45.18Zm570.77 518.13c-2.03 1.18-4.56 2.65-9.24 2.65v-6.91c2.82 0 4.06-.72 5.77-1.71 2.03-1.18 4.56-2.65 9.24-2.65s7.21 1.47 9.24 2.65c1.71.99 2.95 1.71 5.77 1.71v6.91c-4.68 0-7.21-1.47-9.24-2.65-1.71-.99-2.95-1.71-5.77-1.71s-4.06.72-5.77 1.71Zm69.01 0c-2.03 1.18-4.56 2.65-9.24 2.65v-6.91c2.82 0 4.06-.72 5.77-1.71 2.03-1.18 4.56-2.65 9.24-2.65s7.21 1.47 9.24 2.65c1.71.99 2.95 1.71 5.77 1.71v6.91c-4.68 0-7.21-1.47-9.24-2.65-1.71-.99-2.95-1.71-5.77-1.71s-4.06.72-5.77 1.71Zm-34.5-31.13c-2.03 1.18-4.56 2.65-9.24 2.65v-6.91c2.82 0 4.06-.72 5.77-1.71 2.03-1.18 4.56-2.65 9.24-2.65s7.21 1.47 9.24 2.65c1.71.99 2.95 1.71 5.77 1.71v6.91c-4.68 0-7.21-1.47-9.24-2.65-1.71-.99-2.95-1.71-5.77-1.71s-4.06.72-5.77 1.71Zm69 0c-2.03 1.18-4.56 2.65-9.24 2.65v-6.91c2.82 0 4.06-.72 5.77-1.71 2.03-1.18 4.56-2.65 9.24-2.65s7.21 1.47 9.24 2.65c1.71.99 2.95 1.71 5.77 1.71v6.91c-4.68 0-7.21-1.47-9.24-2.65-1.71-.99-2.95-1.71-5.77-1.71s-4.06.72-5.77 1.71Zm34.5 31.13c-2.03 1.18-4.56 2.65-9.24 2.65v-6.91c2.82 0 4.06-.72 5.77-1.71 2.03-1.18 4.56-2.65 9.24-2.65s7.21 1.47 9.24 2.65c1.71.99 2.95 1.71 5.77 1.71v6.91c-4.68 0-7.21-1.47-9.24-2.65-1.71-.99-2.95-1.71-5.77-1.71s-4.06.72-5.77 1.71Zm-172.52-31.13c-2.03 1.18-4.56 2.65-9.24 2.65v-6.91c2.82 0 4.06-.72 5.77-1.71 2.03-1.18 4.56-2.65 9.24-2.65s7.21 1.47 9.24 2.65c1.71.99 2.95 1.71 5.77 1.71v6.91c-4.68 0-7.21-1.47-9.24-2.65-1.71-.99-2.95-1.71-5.77-1.71s-4.06.72-5.77 1.71Zm207.02 0c-2.03 1.18-4.56 2.65-9.24 2.65v-6.91c2.82 0 4.06-.72 5.77-1.71 2.03-1.18 4.56-2.65 9.24-2.65s7.21 1.47 9.24 2.65c1.71.99 2.95 1.71 5.77 1.71v6.91c-4.68 0-7.21-1.47-9.24-2.65-1.71-.99-2.95-1.71-5.77-1.71s-4.06.72-5.77 1.71Zm-155.18-255.3c-11.24 0-20.35 9.11-20.35 20.35 0-11.24-9.11-20.35-20.35-20.35 11.24 0 20.35-9.11 20.35-20.35 0 11.24 9.11 20.35 20.35 20.35Zm69.27-110.68c0 20.56-16.67 37.23-37.23 37.23s-37.23-16.67-37.23-37.23c0-.43.03-.85.05-1.28 0-.3-.05-.59-.05-.9 0-.76.03-1.5.08-2.25 1.08 15.98 14.37 28.61 30.63 28.61s30.71-13.75 30.71-30.71-12.63-29.55-28.61-30.63c.74-.05 1.49-.08 2.25-.08.3 0 .6.04.9.05.43-.02.85-.05 1.28-.05 20.56 0 37.23 16.67 37.23 37.23ZM1492.7 1098.8c-7.66 0-13.87 6.21-13.87 13.87 0-7.66-6.21-13.87-13.87-13.87 7.66 0 13.87-6.21 13.87-13.87 0 7.66 6.21 13.87 13.87 13.87ZM956.79 756.84c-13.7 0-24.84 11.14-24.84 24.84s11.14 24.84 24.84 24.84 24.84-11.14 24.84-24.84-11.14-24.84-24.84-24.84Zm0 42.77c-9.89 0-17.93-8.04-17.93-17.93s8.04-17.93 17.93-17.93 17.93 8.04 17.93 17.93-8.04 17.93-17.93 17.93Zm-33.06-14.48h-40.16v-6.91h40.16a32.934 32.934 0 0 0 0 6.9Zm12.13 22.36-19.59 19.59-4.88-4.88 19.59-19.59c1.45 1.79 3.09 3.43 4.88 4.88Zm-4.88-46.74-19.59-19.59 4.88-4.88 19.59 19.59a33.108 33.108 0 0 0-4.88 4.88Zm697.37 315.88c-6.91 0-12.51 5.6-12.51 12.51 0-6.91-5.6-12.51-12.51-12.51 6.91 0 12.51-5.6 12.51-12.51 0 6.91 5.6 12.51 12.51 12.51ZM956.79 748.44c-1.17 0-2.32.06-3.45.18v-40.16h6.91v40.16c-1.14-.12-2.29-.18-3.45-.18Zm289.43 544.12c-12.97 0-26.17-1.67-39.17-4.82 9.58 28.97 35.5 48.75 64.83 48.75v14.04c-37.63 0-70.55-26.71-80.07-64.94l-.62-2.48c-22.13-7.55-43.06-19.36-60.45-34.56l-6.37 7.28c1.91 1.67 3.86 3.29 5.85 4.88l15.7 60.52c11.73 44.64 57.49 75.76 103.65 75.76s91.93-31.12 103.65-75.76l.8-3.37c1.09.53 2.2 1.07 3.33 1.64l4.31-8.66c-35.38-17.61-49.55-18.28-103.87-18.28h-11.58Zm-29.75 78.63c-13.86-5.65-28.66-18.16-38.63-32.66-8.06-11.72-15.57-23.72-18.94-41.62l13.8-2.59c2.86 15.22 9.26 25.43 16.7 36.26 8.37 12.17 21.07 23.01 32.35 27.61l-5.3 13.01Zm186.9-113.08h-5.13l8.56-32.6h-314.44l25.22 96c15.74 59.95 70.03 101.81 132.01 101.81 57.25 0 107.91-35.74 127.72-88.43h18.58c20.31 0 36.83-19.22 36.83-42.84 0-18.72-13.16-33.94-29.34-33.94Zm-31.14 60.95c-14.63 55.7-65.07 94.6-122.65 94.6s-108.02-38.9-122.65-94.6l-22.03-83.87h289.37l-22.03 83.87Zm23.65 6.16h-15.35c.36-1.23.73-2.46 1.06-3.71l14.3-54.43v.69h7.49c10.85 0 19.67 10.89 19.67 24.27 0 18.29-12.18 33.17-27.16 33.17Zm-406.03-547h40.16v6.91h-40.16a32.934 32.934 0 0 0 0-6.9Zm-7.24 24.38 19.59 19.59-4.88 4.88-19.59-19.59c1.79-1.45 3.43-3.09 4.88-4.88Z"/></svg>