<svg xmlns="http://www.w3.org/2000/svg" data-name="Layer 1" viewBox="0 0 5050 1571.73"><path d="M1531.86 1306.68c0 1.21-.51 1.81-1.51 1.81-3.83 0-9.78-.2-17.84-.6-8.47-.4-14.51-.61-18.14-.61-4.64 0-10.39.21-17.24.61-6.85.4-12 .6-15.42.6-.81 0-1.21-.6-1.21-1.81s.4-1.81 1.21-1.81c6.85 0 11.79-.66 14.82-1.97 3.02-1.31 4.54-3.68 4.54-7.11s-1.51-8.17-4.54-14.22l-65.01-135.17 9.68-14.52-58.97 136.69c-2.83 6.85-4.23 12.5-4.23 16.93 0 6.46 2.52 11.29 7.56 14.51 5.03 3.23 12.29 4.84 21.77 4.84 1.01 0 1.51.6 1.51 1.81s-.5 1.81-1.51 1.81c-3.63 0-8.87-.2-15.72-.6-7.67-.4-14.32-.61-19.96-.61-5.24 0-11.49.21-18.75.61-6.45.4-11.69.6-15.72.6-.8 0-1.21-.6-1.21-1.81s.41-1.81 1.21-1.81c5.64 0 10.43-1.11 14.36-3.33 3.93-2.21 7.71-6.05 11.34-11.49 3.63-5.45 7.76-13.51 12.4-24.19l64.41-148.47c.2-.61.91-.96 2.12-1.06 1.21-.09 1.91.26 2.12 1.06l72.57 149.68c7.05 14.72 12.95 24.69 17.69 29.93 4.73 5.24 10.13 7.87 16.18 7.87 1 0 1.51.6 1.51 1.81Zm-154.22-83.77h82.25l2.12 6.66h-88l3.63-6.66ZM1658.26 1208.4c9.47 4.44 16.79 10.54 21.92 18.29 5.14 7.77 7.71 16.58 7.71 26.46 0 10.69-2.78 20.32-8.32 28.88-5.55 8.57-13.11 15.32-22.68 20.26-9.58 4.94-20.31 7.41-32.21 7.41-6.46 0-13.51-.3-21.17-.91-2.83-.2-6.15-.4-9.98-.6-3.83-.2-8.17-.3-13-.3l-21.17.3c-3.83.2-8.97.3-15.42.3-.61 0-.91-.6-.91-1.81s.3-1.81.91-1.81c7.05 0 12.29-.56 15.73-1.67 3.43-1.1 5.79-3.07 7.11-5.89 1.31-2.82 1.97-7.26 1.97-13.31v-140.01c0-6.05-.66-10.48-1.97-13.31-1.31-2.82-3.63-4.78-6.95-5.89-3.33-1.1-8.52-1.67-15.57-1.67-.41 0-.61-.6-.61-1.81s.2-1.81.61-1.81l15.12.3c8.87.41 15.92.61 21.17.61 5.64 0 11.59-.31 17.84-.91 2.22-.2 4.89-.4 8.01-.6 3.12-.2 6.5-.31 10.13-.31 17.34 0 30.49 3.59 39.46 10.74 8.97 7.16 13.46 16.79 13.46 28.88 0 11.29-4.23 21.17-12.7 29.63-8.47 8.47-19.96 14.42-34.47 17.84l3.33-3.93c12.29 0 23.18 2.22 32.66 6.66Zm-58.51-83.16c-2.52 1.01-4.34 2.98-5.44 5.89-1.11 2.92-1.66 7.41-1.66 13.46v59.27l-9.98-2.42c8.67.61 16.43.91 23.28.91 13.31 0 23.28-3.83 29.94-11.49 6.65-7.66 9.98-17.74 9.98-30.24 0-11.49-2.87-20.51-8.62-27.06-5.75-6.55-14.57-9.83-26.46-9.83-4.84 0-8.52.5-11.04 1.51Zm52.01 167.22c6.95-7.45 10.43-18.14 10.43-32.05 0-15.31-4.23-27.62-12.7-36.89-8.47-9.27-20.46-14.01-35.99-14.22-10.08-.4-20.06.11-29.94 1.51l9.07-3.33v76.51c0 5.04.7 8.92 2.11 11.64 1.41 2.72 4.03 4.74 7.86 6.05 3.83 1.31 9.57 1.97 17.24 1.97 14.31 0 24.95-3.73 31.9-11.19ZM1734.16 1135.97c-7.06 6.96-12.3 18.1-15.73 33.42-.2.41-.86.6-1.97.6s-1.66-.3-1.66-.9c.8-5.64 1.71-14.82 2.72-27.52 1.01-12.7 1.51-22.28 1.51-28.73 0-1.01.61-1.51 1.81-1.51s1.82.5 1.82 1.51c0 4.44 5.54 6.65 16.63 6.65 17.33.6 37.6.91 60.78.91 11.89 0 24.49-.2 37.8-.61l20.56-.3c7.46 0 12.9-.5 16.33-1.51 3.43-1 5.64-3.02 6.65-6.05.2-.8.85-1.21 1.96-1.21s1.66.41 1.66 1.21c-.6 5.65-1.26 14.72-1.96 27.22-.71 12.5-1.06 22.48-1.06 29.94 0 .6-.56.9-1.66.9s-1.66-.3-1.66-.9c-1.41-15.52-5.44-26.66-12.1-33.42-6.65-6.75-16.53-10.13-29.63-10.13-7.46 0-12.8.45-16.03 1.36-3.23.91-5.45 2.62-6.65 5.14-1.21 2.52-1.82 6.7-1.82 12.55v139.4c0 6.25.65 10.78 1.97 13.61 1.31 2.82 3.88 4.74 7.71 5.75 3.83 1.01 9.98 1.51 18.45 1.51.4 0 .6.6.6 1.81s-.2 1.81-.6 1.81c-7.06 0-12.6-.1-16.63-.3l-23.89-.3-23.28.3c-4.03.2-9.68.3-16.93.3-.61 0-.91-.6-.91-1.81s.3-1.81.91-1.81c8.26 0 14.36-.5 18.29-1.51 3.93-1.01 6.6-2.98 8.01-5.9 1.41-2.92 2.11-7.41 2.11-13.45v-140.01c0-5.64-.6-9.72-1.81-12.24-1.21-2.52-3.48-4.18-6.8-4.99-3.33-.8-8.72-1.21-16.18-1.21-12.5 0-22.28 3.48-29.33 10.43ZM1952.33 1298.96c-14.62-8.77-25.91-20.66-33.87-35.68-7.96-15.02-11.94-31.4-11.94-49.14 0-20.77 5.24-38.56 15.72-53.37 10.48-14.82 23.94-25.96 40.37-33.42 16.43-7.45 33.21-11.19 50.35-11.19 19.15 0 35.99 4.49 50.5 13.45 14.51 8.97 25.65 20.82 33.41 35.53 7.76 14.72 11.64 30.35 11.64 46.87 0 18.35-4.84 35.18-14.51 50.5-9.68 15.32-22.63 27.42-38.86 36.29-16.23 8.87-33.82 13.3-52.77 13.3s-35.43-4.38-50.05-13.15Zm95.4-3.48c10.28-6.65 18.39-16.37 24.35-29.18 5.94-12.8 8.92-28.07 8.92-45.81 0-18.75-3.28-35.48-9.83-50.2-6.55-14.72-15.93-26.21-28.12-34.47-12.2-8.26-26.36-12.4-42.49-12.4-20.97 0-37.3 7.11-48.99 21.32-11.69 14.22-17.54 33.82-17.54 58.82 0 19.15 3.33 36.49 9.98 52.01 6.65 15.53 15.98 27.72 27.97 36.59 11.99 8.88 25.65 13.31 40.97 13.31 12.9 0 24.5-3.33 34.78-9.98ZM2186.23 1296.85c1.61 2.92 4.69 4.99 9.22 6.2 4.54 1.21 11.84 1.82 21.92 1.82.61 0 .91.6.91 1.81s-.3 1.81-.91 1.81c-8.27 0-14.72-.1-19.35-.3l-26.31-.3-20.87.3c-3.83.2-8.97.3-15.42.3-.61 0-.91-.6-.91-1.81s.3-1.81.91-1.81c7.26 0 12.5-.5 15.73-1.51 3.22-1.01 5.44-2.98 6.65-5.9 1.21-2.92 1.81-7.41 1.81-13.45V1144c0-6.05-.61-10.48-1.81-13.31-1.21-2.82-3.48-4.78-6.8-5.89-3.33-1.1-8.52-1.67-15.57-1.67-.61 0-.91-.6-.91-1.81s.3-1.81.91-1.81l15.12.3c8.87.41 15.82.61 20.87.61s10.58-.31 17.23-.91c2.42 0 6.2-.15 11.34-.45 5.14-.3 9.63-.45 13.46-.45 18.95 0 34.17 4.19 45.66 12.55 11.49 8.37 17.23 21.02 17.23 37.95 0 13.11-3.28 24.19-9.83 33.26-6.55 9.07-14.92 15.83-25.1 20.26-10.18 4.44-20.71 6.66-31.6 6.66-5.85 0-10.69-.5-14.51-1.51-.61 0-.91-.5-.91-1.51 0-.61.15-1.21.45-1.82s.65-.8 1.06-.6c3.22.81 6.75 1.21 10.58 1.21 12.1 0 22.27-4.34 30.54-13.01 8.27-8.66 12.4-21.17 12.4-37.5s-4.04-28.37-12.1-37.34c-8.06-8.97-18.75-13.45-32.06-13.45-6.25 0-10.78.45-13.61 1.36-2.82.91-4.84 2.83-6.05 5.75s-1.81 7.51-1.81 13.76v138.19c0 6.46.8 11.14 2.42 14.06ZM2443.26 1118.74c9.88 1.71 17.74 4.08 23.59 7.11 1.61.81 2.67 1.67 3.17 2.57.5.91.95 2.47 1.36 4.69l3.33 36.29c0 .6-.5 1.01-1.51 1.21-1.01.2-1.62-.1-1.81-.91-5.24-15.52-13.81-27.16-25.7-34.92-11.9-7.76-26.21-11.65-42.94-11.65-14.72 0-27.52 3.38-38.4 10.13-10.88 6.76-19.2 16.28-24.95 28.57-5.74 12.3-8.62 26.51-8.62 42.64 0 18.75 3.58 35.99 10.73 51.71 7.16 15.73 16.94 28.18 29.33 37.35 12.4 9.17 26.05 13.76 40.97 13.76 29.03 0 49.79-16.53 62.29-49.59 0-.6.5-.9 1.51-.9.4 0 .85.15 1.36.45.5.3.76.56.76.76l-4.23 36.29c-.41 2.42-.86 3.98-1.36 4.68-.5.71-1.66 1.46-3.48 2.27-18.55 7.26-37.49 10.88-56.85 10.88-24.4 0-44.75-4.88-61.08-14.66-16.33-9.77-28.33-22.22-35.98-37.34-7.66-15.12-11.49-30.94-11.49-47.47 0-18.75 5.19-35.43 15.57-50.05 10.38-14.61 24.09-26 41.13-34.17 17.03-8.16 35.23-12.24 54.58-12.24 9.27 0 18.85.86 28.73 2.57ZM2499.51 1306.68c0-1.21.2-1.81.6-1.81 7.46 0 12.95-.5 16.48-1.51 3.53-1.01 5.94-2.98 7.26-5.9 1.31-2.92 1.96-7.41 1.96-13.45V1144c0-6.05-.66-10.48-1.96-13.31-1.31-2.82-3.68-4.78-7.11-5.89-3.43-1.1-8.87-1.67-16.33-1.67-.41 0-.61-.6-.61-1.81s.2-1.81.61-1.81l15.42.3c8.47.41 15.42.61 20.87.61 6.05 0 13.71-.2 22.98-.61l15.12-.3c.61 0 .91.6.91 1.81s-.3 1.81-.91 1.81c-7.26 0-12.65.61-16.18 1.82-3.53 1.2-5.9 3.28-7.11 6.2-1.21 2.92-1.81 7.41-1.81 13.46v139.4c0 6.25.61 10.78 1.81 13.61 1.21 2.82 3.53 4.74 6.96 5.75 3.43 1.01 8.87 1.51 16.33 1.51.61 0 .91.6.91 1.81s-.3 1.81-.91 1.81c-6.45 0-11.59-.1-15.42-.3l-22.68-.3-21.17.3c-3.63.2-8.77.3-15.42.3-.4 0-.6-.6-.6-1.81Zm141.82-.45c-2.02-1.51-5.55-5.59-10.58-12.25-5.04-6.65-13.71-18.75-26-36.29l-3.63-5.14c-8.67-12.3-15.02-20.91-19.05-25.86-4.04-4.94-8.22-8.41-12.55-10.43-4.34-2.01-10.03-3.02-17.08-3.02-2.42 0-4.74.11-6.96.3-2.22.21-4.23.41-6.05.61l-.3-5.45c13.31-.6 23.59-.91 30.84-.91 9.47 0 16.73 1.06 21.77 3.18 5.03 2.11 9.77 5.75 14.21 10.88 4.43 5.14 11.89 15.07 22.38 29.78 9.88 13.71 17.64 24 23.28 30.85 5.64 6.86 11.49 12.24 17.54 16.18 6.05 3.93 12.8 6 20.26 6.2.4 0 .61.6.61 1.81s-.2 1.81-.61 1.81h-40.82c-2.83 0-5.24-.76-7.26-2.27Zm-68.95-96.31 36.59-50.8c8.87-11.89 13.31-20.87 13.31-26.91s-4.84-9.07-14.51-9.07c-.41 0-.61-.6-.61-1.81s.2-1.81.61-1.81l13.3.3c8.06.41 15.42.61 22.08.61 7.05 0 14.41-.2 22.07-.61l11.79-.3c.61 0 .91.6.91 1.81s-.3 1.81-.91 1.81c-10.08 0-19.61 2.78-28.57 8.32-8.97 5.55-17.9 14.06-26.76 25.56l-43.85 55.64-5.44-2.72ZM2881.42 1116.77c1.22 0 2.32.21 3.33.61 1 .4 1.51.9 1.51 1.51V1284c0 6.05.65 10.54 1.96 13.45 1.31 2.92 3.69 4.89 7.11 5.9 3.43 1.01 8.87 1.51 16.32 1.51.61 0 .91.6.91 1.81s-.3 1.81-.91 1.81c-6.45 0-11.59-.1-15.41-.3l-21.77-.3-23.9.3c-3.43.2-8.16.3-14.21.3-.6 0-.91-.6-.91-1.81s.31-1.81.91-1.81c7.87 0 13.56-.5 17.08-1.51 3.53-1.01 5.91-2.92 7.11-5.75 1.2-2.82 1.82-7.36 1.82-13.61v-143.34h6.95l-134.26 170.85c-.61.6-1.92.91-3.93.91-3.23 0-4.84-.71-4.84-2.12v-166.32c0-6.05-.66-10.48-1.97-13.31-1.31-2.82-3.73-4.78-7.26-5.89-3.53-1.1-9.02-1.67-16.48-1.67-.41 0-.61-.6-.61-1.81s.2-1.81.61-1.81l16.03.3c9.27.41 16.43.61 21.47.61 6.45 0 14.31-.2 23.59-.61l14.52-.3c.6 0 .91.6.91 1.81s-.3 1.81-.91 1.81c-7.86 0-13.56.56-17.09 1.67-3.53 1.11-5.9 3.08-7.11 5.89-1.21 2.83-1.82 7.26-1.82 13.31v144.85h-6.95l134.27-170.85c.6-.8 1.91-1.21 3.92-1.21ZM2934.64 1306.68c0-1.21.3-1.81.91-1.81 7.25 0 12.54-.5 15.88-1.51 3.33-1.01 5.59-2.98 6.8-5.9 1.2-2.92 1.81-7.41 1.81-13.45V1144c0-6.05-.61-10.48-1.81-13.31-1.21-2.82-3.48-4.78-6.8-5.89-3.33-1.1-8.62-1.67-15.88-1.67-.61 0-.91-.6-.91-1.81s.3-1.81.91-1.81h123.37c2.01 0 3.02.91 3.02 2.72l.61 38.1c0 .6-.56.96-1.67 1.06-1.11.11-1.77-.15-1.97-.76-1.41-11.09-5.35-19.55-11.79-25.4-6.45-5.84-14.92-8.76-25.4-8.76h-15.43c-8.87 0-14.81 1.31-17.84 3.93-3.02 2.62-4.54 7.56-4.54 14.82v137.59c0 7.26 1.36 12.2 4.08 14.82 2.72 2.62 8.21 3.93 16.48 3.93h19.96c11.29 0 20.72-3.37 28.28-10.13 7.56-6.75 12.75-16.38 15.57-28.88 0-.4.4-.61 1.21-.61.61 0 1.16.15 1.67.45.5.3.76.56.76.76-2.02 14.52-3.02 28.12-3.02 40.82 0 1.62-.3 2.78-.91 3.48-.6.71-1.81 1.06-3.63 1.06h-128.82c-.61 0-.91-.6-.91-1.81Zm105.38-86.94c-4.94-4.13-12.75-6.2-23.44-6.2h-44.15v-6.95h44.76c10.28 0 17.84-1.77 22.68-5.29 4.84-3.53 7.25-9.02 7.25-16.48 0-.4.56-.6 1.67-.6s1.67.2 1.67.6l-.31 25.4.31 13.61c.4 6.46.6 11.49.6 15.12 0 .41-.6.6-1.81.6s-1.81-.19-1.81-.6c0-8.66-2.47-15.07-7.41-19.2ZM3264.7 1228.05c-9.98 4.03-20.32 6.05-31 6.05-16.54 0-29.44-4.39-38.71-13.15-9.27-8.77-13.91-20.72-13.91-35.84v-41.12c0-6.05-.56-10.48-1.67-13.31-1.11-2.82-3.33-4.78-6.65-5.89-3.33-1.1-8.42-1.67-15.27-1.67-.6 0-.9-.6-.9-1.81s.3-1.81.9-1.81c4.44 0 7.96.11 10.58.3 7.26.41 15.22.61 23.89.61 7.26 0 15.12-.2 23.59-.61l11.19-.3c.6 0 .91.6.91 1.81s-.31 1.81-.91 1.81c-6.25 0-10.88.61-13.91 1.82-3.02 1.2-5.1 3.28-6.2 6.2-1.11 2.92-1.66 7.41-1.66 13.46v29.93c0 15.33 3.22 26.77 9.67 34.33 6.45 7.56 16.63 11.34 30.54 11.34 14.71 0 30.54-4.44 47.48-13.31l2.72 2.11c-10.48 8.67-20.71 15.02-30.69 19.05Zm21.32-96.92c-1.01-2.92-2.98-4.99-5.89-6.2-2.92-1.21-7.61-1.82-14.06-1.82-.6 0-.91-.6-.91-1.81s.31-1.81.91-1.81l14.21.3c8.06.41 14.82.61 20.26.61s12.6-.2 21.47-.61l15.42-.3c.4 0 .61.6.61 1.81s-.21 1.81-.61 1.81c-7.46 0-12.95.56-16.48 1.67-3.53 1.11-5.95 3.08-7.26 5.89-1.31 2.83-1.97 7.26-1.97 13.31v140.01c0 6.05.66 10.54 1.97 13.45 1.31 2.92 3.73 4.89 7.26 5.9 3.53 1.01 9.02 1.51 16.48 1.51.4 0 .61.6.61 1.81s-.21 1.81-.61 1.81c-6.46 0-11.59-.1-15.42-.3l-21.47-.3-22.38.3c-3.63.2-8.87.3-15.72.3-.41 0-.61-.6-.61-1.81s.2-1.81.61-1.81c7.65 0 13.2-.5 16.63-1.51 3.43-1.01 5.69-2.92 6.8-5.75 1.1-2.82 1.66-7.36 1.66-13.61v-139.4c0-6.05-.5-10.54-1.51-13.46ZM3562.1 1306.68c0 1.21-.51 1.81-1.51 1.81-3.83 0-9.78-.2-17.84-.6-8.47-.4-14.52-.61-18.14-.61-4.64 0-10.38.21-17.23.61-6.86.4-12 .6-15.43.6-.8 0-1.2-.6-1.2-1.81s.4-1.81 1.2-1.81c6.85 0 11.79-.66 14.82-1.97 3.02-1.31 4.54-3.68 4.54-7.11s-1.51-8.17-4.54-14.22l-65.01-135.17 9.68-14.52-58.97 136.69c-2.83 6.85-4.23 12.5-4.23 16.93 0 6.46 2.52 11.29 7.56 14.51 5.04 3.23 12.29 4.84 21.77 4.84 1.01 0 1.51.6 1.51 1.81s-.5 1.81-1.51 1.81c-3.63 0-8.87-.2-15.72-.6-7.67-.4-14.32-.61-19.96-.61-5.24 0-11.49.21-18.75.61-6.46.4-11.69.6-15.72.6-.8 0-1.21-.6-1.21-1.81s.41-1.81 1.21-1.81c5.64 0 10.43-1.11 14.36-3.33 3.93-2.21 7.71-6.05 11.34-11.49 3.63-5.45 7.75-13.51 12.4-24.19l64.41-148.47c.19-.61.9-.96 2.11-1.06 1.21-.09 1.91.26 2.11 1.06l72.57 149.68c7.06 14.72 12.95 24.69 17.69 29.93 4.73 5.24 10.13 7.87 16.18 7.87 1 0 1.51.6 1.51 1.81Zm-154.22-83.77h82.25l2.12 6.66h-88l3.63-6.66ZM3752.3 1116.77c1.21 0 2.32.21 3.33.61 1 .4 1.51.9 1.51 1.51V1284c0 6.05.65 10.54 1.96 13.45 1.31 2.92 3.68 4.89 7.11 5.9 3.43 1.01 8.87 1.51 16.32 1.51.61 0 .91.6.91 1.81s-.3 1.81-.91 1.81c-6.45 0-11.59-.1-15.42-.3l-21.77-.3-23.89.3c-3.43.2-8.16.3-14.21.3-.61 0-.91-.6-.91-1.81s.3-1.81.91-1.81c7.86 0 13.55-.5 17.08-1.51 3.53-1.01 5.9-2.92 7.11-5.75 1.2-2.82 1.81-7.36 1.81-13.61v-143.34h6.95l-134.26 170.85c-.61.6-1.92.91-3.93.91-3.22 0-4.84-.71-4.84-2.12v-166.32c0-6.05-.66-10.48-1.97-13.31-1.31-2.82-3.73-4.78-7.26-5.89-3.53-1.1-9.02-1.67-16.48-1.67-.41 0-.61-.6-.61-1.81s.2-1.81.61-1.81l16.02.3c9.27.41 16.43.61 21.47.61 6.45 0 14.31-.2 23.58-.61l14.52-.3c.6 0 .9.6.9 1.81s-.3 1.81-.9 1.81c-7.86 0-13.56.56-17.09 1.67-3.53 1.11-5.89 3.08-7.11 5.89-1.21 2.83-1.81 7.26-1.81 13.31v144.85h-6.96l134.26-170.85c.6-.8 1.91-1.21 3.93-1.21ZM1135.49 1192.48l-3.64 49.32c-1.6 21.68 6.04 40.72 18.04 48.25-9.14-.3-18.53 3.11-25.67 10.25l-24.15 24.15c12.78 12.78 33.94 12.32 47.28-1.01s11.88-11.88 11.88-11.88l11.4-11.4c1.5.5 3.02 1 4.54 1.49 11.74 3.81 23.88 7.74 34.98 18.84 25.37 25.37 15.27 64.01 15.45 64.68l13.36-7.71c-.76-2.83 3.72-35.73-23.16-62.61-12.46-12.46-26.11-16.88-38.16-20.79-6.39-2.07-12.2-3.96-17.31-6.75l1.4-18.92 1.79-24.25c2.01-27.24-10.53-50.36-28.02-51.66Z"/><path d="m1121.05 1280.67 4.04-.63-.72-4.02c-.04-.25-4.47-25-7.81-41.2-1.11-5.41-3.81-9.52-8.01-12.21-8.22-5.25-19.18-2.76-19.64-2.65l-3.97.93 3.64 14.1-18.56.88 15.57 17.58c-5.11 1.19-10.9 3.54-12.59 8.11-.91 2.44-1 6.33 3.68 11.01 12.82 12.82 43.1 8.29 44.39 8.1ZM3958.28 1192.48l3.64 49.32c1.6 21.68-6.04 40.72-18.04 48.25 9.14-.3 18.53 3.11 25.67 10.25l24.15 24.15c-12.78 12.78-33.94 12.32-47.28-1.01s-11.88-11.88-11.88-11.88l-11.4-11.4c-1.5.5-3.02 1-4.54 1.49-11.74 3.81-23.88 7.74-34.98 18.84-25.37 25.37-15.27 64.01-15.45 64.68l-13.36-7.71c.76-2.83-3.72-35.73 23.16-62.61 12.46-12.46 26.11-16.88 38.16-20.79 6.39-2.07 12.2-3.96 17.31-6.75l-1.4-18.92-1.79-24.25c-2.01-27.24 10.53-50.36 28.02-51.66Z"/><path d="m3972.71 1280.67-4.04-.63.72-4.02c.04-.25 4.47-25 7.81-41.2 1.11-5.41 3.81-9.52 8.01-12.21 8.22-5.25 19.18-2.76 19.64-2.65l3.97.93-3.64 14.1 18.56.88-15.57 17.58c5.11 1.19 10.9 3.54 12.59 8.11.91 2.44 1 6.33-3.68 11.01-12.82 12.82-43.1 8.29-44.39 8.1ZM604.28 192.33c30.55 5.61 54.88 13.73 72.97 24.33 5.61 2.49 9.19 5.14 10.76 7.95 1.55 2.81 2.64 7.64 3.27 14.5l10.29 104.79c0 1.87-1.57 2.97-4.68 3.27-3.13.32-5-.46-5.61-2.34-13.73-48.03-39.15-83.41-76.25-106.19-37.12-22.76-83.12-34.15-138-34.15-47.41 0-88.88 10.45-124.43 31.34-35.55 20.9-63 50.38-82.33 88.42-19.34 38.05-29 82.02-29 131.92 0 58.01 12 111.65 36.02 160.91 24 49.28 56.44 88.27 97.3 116.95 40.84 28.7 84.98 43.04 132.39 43.04 44.91 0 83.88-12.31 116.94-36.95 33.05-24.63 58.31-62.52 75.78-113.67 0-1.87 1.24-2.81 3.74-2.81 1.87 0 3.59.32 5.15.94 1.55.63 2.34 1.57 2.34 2.81l-13.1 105.72c-1.26 7.48-2.66 12.32-4.21 14.51-1.56 2.19-5.14 4.53-10.76 7.01-56.13 23.71-115.4 35.55-177.76 35.55-74.84 0-137.38-15.11-187.58-45.37-50.21-30.25-87.17-68.76-110.86-115.54-23.71-46.78-35.55-96.04-35.55-147.82 0-57.38 15.91-108.83 47.71-154.37 31.81-45.52 73.91-80.77 126.3-105.72 52.39-24.94 108.53-37.42 168.4-37.42 29.94 0 60.18 2.81 90.75 8.42ZM938.74 749.46c-45.23-27.14-80.15-63.93-104.78-110.4C809.31 592.6 797 541.92 797 487.03c0-64.23 16.21-119.28 48.65-165.12 32.42-45.85 74.06-80.3 124.9-103.39 50.83-23.07 102.75-34.61 155.77-34.61 59.25 0 111.34 13.89 156.24 41.63 44.91 27.76 79.37 64.4 103.38 109.93 24 45.54 36.02 93.88 36.02 145.01 0 56.76-14.97 108.85-44.91 156.24-29.94 47.4-70.02 84.83-120.22 112.26-50.22 27.45-104.64 41.16-163.26 41.16s-109.62-13.56-154.84-40.69Zm302.19-9.83c33.99-20.58 60.81-50.66 80.46-90.28 19.64-39.6 29.47-87.15 29.47-142.67 0-58.62-10.92-110.71-32.75-156.24-21.84-45.52-52.55-81.07-92.16-106.65-39.62-25.57-85.93-38.36-138.93-38.36-68.62 0-122.25 22.15-160.92 66.43-38.68 44.29-58.01 105.1-58.01 182.44 0 58.63 10.91 112.12 32.75 160.45 21.83 48.34 52.39 86.39 91.68 114.14 39.3 27.77 83.88 41.63 133.79 41.63 42.41 0 80.61-10.29 114.61-30.88ZM2066.1 818.69c-20.9-26.52-55.99-39.76-105.25-39.76h-460.3c-1.26 0-1.87-1.87-1.87-5.61s.61-5.61 1.87-5.61c23.69 0 41.31-1.55 52.86-4.68 11.53-3.11 19.33-9.19 23.39-18.24 4.05-9.04 6.08-22.92 6.08-41.63V269.99c0-18.71-2.03-32.42-6.08-41.16-4.06-8.73-11.86-14.81-23.39-18.24-11.55-3.42-29.16-5.15-52.86-5.15-1.26 0-1.87-1.87-1.87-5.61s.61-5.61 1.87-5.61l46.78.94c26.2 1.25 47.39 1.87 63.62 1.87 17.45 0 39.91-.61 67.36-1.87l46.78-.94c1.24 0 1.87 1.87 1.87 5.61s-.63 5.61-1.87 5.61c-24.32 0-42.1 1.72-53.33 5.15-11.23 3.43-18.87 9.52-22.92 18.24-4.06 8.74-6.08 22.45-6.08 41.16v431.3c0 21.21 1.08 35.24 3.27 42.1 2.18 6.87 7.63 11.22 16.37 13.1 8.73 1.87 26.5 2.81 53.33 2.81h174.95c28.07 0 46.92-.94 56.6-2.81 9.66-1.87 15.74-6.39 18.24-13.57 2.48-7.16 3.74-21.05 3.74-41.63v-431.3c0-18.71-2.03-32.42-6.08-41.16-4.06-8.73-11.69-14.81-22.92-18.24-11.23-3.42-29-5.15-53.33-5.15-1.87 0-2.81-1.87-2.81-5.61s.94-5.61 2.81-5.61l46.78.94c27.44 1.25 49.59 1.87 66.43 1.87s38.36-.61 64.55-1.87l46.78-.94c1.24 0 1.87 1.87 1.87 5.61s-.63 5.61-1.87 5.61c-24.32 0-42.1 1.72-53.33 5.15-11.23 3.43-18.87 9.52-22.92 18.24-4.06 8.74-6.08 22.45-6.08 41.16v433.17c0 23.71 1.08 39.3 3.27 46.78 2.18 7.48 7.63 12.32 16.37 14.51 8.72 2.19 25.87 3.27 51.46 3.27 4.98 0 7.95.62 8.89 1.87.94 1.26 1.4 4.38 1.4 9.36 0 10.6-.32 19.64-.94 27.13-1.26 31.18-1.87 80.46-1.87 147.82 0 3.11-1.72 4.68-5.14 4.68s-5.15-1.57-5.15-4.68c0-63.62-10.45-108.69-31.34-135.19ZM2536.22 469.26c28.07 13.73 49.73 32.6 65.02 56.6 15.28 24.02 22.92 50.99 22.92 80.93 0 33.06-8.11 63-24.32 89.81-16.23 26.83-38.52 47.88-66.89 63.15-28.39 15.29-60.04 22.92-94.96 22.92-20.58 0-43.04-.93-67.36-2.8-8.74-.63-19.03-1.24-30.88-1.87-11.85-.61-24.95-.94-39.29-.94l-63.62.94c-11.23.63-27.13.94-47.71.94-1.26 0-1.87-1.87-1.87-5.61s.61-5.61 1.87-5.61c23.69 0 41.17-1.72 52.39-5.15 11.23-3.42 19.02-9.5 23.39-18.24 4.36-8.73 6.55-22.45 6.55-41.17V269.99c0-18.71-2.03-32.42-6.08-41.16-4.06-8.73-11.7-14.81-22.92-18.24-11.23-3.42-28.39-5.15-51.46-5.15-1.87 0-2.81-1.87-2.81-5.61s.94-5.61 2.81-5.61l45.85.94c26.2 1.25 47.39 1.87 63.62 1.87 11.23 0 21.66-.31 31.34-.94 9.66-.61 17.92-1.24 24.79-1.87 19.95-1.87 38.03-2.81 54.26-2.81 52.39 0 91.68 11.39 117.88 34.15 26.19 22.78 39.29 52.55 39.29 89.35s-12.63 65.03-37.89 90.28c-25.26 25.26-58.8 43.2-100.57 53.79l10.29-10.29c36.17 0 68.3 6.87 96.37 20.58Zm-182.44-260.09c-7.48 2.49-13.1 8.41-16.84 17.77s-5.61 24.33-5.61 44.91v183.37l-29.94-7.48c26.81 1.87 50.83 2.8 72.04 2.8 45.52 0 79.2-11.7 101.04-35.08 21.83-23.39 32.75-54.41 32.75-93.09 0-34.92-9.52-63.15-28.53-84.67-19.03-21.52-48.51-32.28-88.41-32.28-16.84 0-29 1.26-36.49 3.75Zm171.68 521.58c22.13-23.39 33.21-56.91 33.21-100.57 0-47.4-13.88-85.76-41.63-115.08-27.76-29.31-65.95-44.28-114.61-44.9-35.55-1.24-68.3.32-98.24 4.68l27.13-10.29v238.57c0 16.23 2.34 28.7 7.02 37.42 4.68 8.74 13.71 15.13 27.13 19.18 13.41 4.07 32.89 6.08 58.47 6.08 45.52 0 79.36-11.7 101.51-35.09ZM2709.3 773.32c0-3.75.61-5.61 1.87-5.61 23.7 0 41.01-1.55 51.93-4.68 10.9-3.11 18.39-9.19 22.45-18.24 4.05-9.04 6.08-22.92 6.08-41.63V269.99c0-18.71-2.03-32.42-6.08-41.16-4.07-8.73-11.55-14.81-22.45-18.24-10.92-3.42-28.23-5.15-51.93-5.15-1.25 0-1.87-1.87-1.87-5.61s.61-5.61 1.87-5.61h376.11c5.61 0 8.41 2.8 8.41 8.41l1.87 115.08c0 1.87-1.72 2.97-5.15 3.27-3.43.32-5.14-.47-5.14-2.35-1.87-33.05-11.86-58.78-29.94-77.18-18.1-18.39-42.1-27.6-72.04-27.6h-57.07c-21.84 0-38.05 1.72-48.65 5.15-10.61 3.43-17.94 9.21-21.98 17.31-4.07 8.11-6.08 20.9-6.08 38.36v424.75c0 16.84 2.02 29.47 6.08 37.89 4.05 8.42 11.07 14.2 21.05 17.31 9.97 3.13 25.57 4.68 46.78 4.68h74.85c29.93 0 54.87-10.6 74.84-31.81 19.96-21.2 33.36-50.52 40.23-87.94 0-1.24 1.24-1.87 3.74-1.87 1.87 0 3.58.47 5.15 1.41 1.55.94 2.34 1.72 2.34 2.34-5.61 39.3-8.42 80.46-8.42 123.5 0 5-1.09 8.58-3.27 10.76-2.19 2.2-6.08 3.27-11.7 3.27h-392c-1.25 0-1.87-1.87-1.87-5.61ZM3030.67 502c-13.42-11.84-35.72-17.77-66.89-17.77h-140.34v-19.65h143.14c29.94 0 51.3-4.98 64.09-14.97 12.77-9.96 19.18-26.81 19.18-50.52 0-1.24 1.87-1.87 5.61-1.87s5.61.63 5.61 1.87l-.94 75.78c0 18.09.31 31.81.94 41.16l.94 44.91c0 1.26-1.87 1.87-5.61 1.87s-5.61-.61-5.61-1.87c0-27.44-6.71-47.08-20.12-58.94ZM3261.74 240.98c-19.64 19.97-33.84 53.96-42.56 101.98 0 1.26-1.73 1.87-5.15 1.87s-5.15-.61-5.15-1.87c2.49-22.45 5.29-51.76 8.42-87.94 3.12-36.17 4.68-63.29 4.68-81.4 0-3.11 1.72-4.68 5.15-4.68s5.15 1.57 5.15 4.68c0 13.73 16.84 20.59 50.52 20.59 53.64 1.87 116.32 2.8 188.05 2.8 36.79 0 75.78-.61 116.95-1.87l63.62-.94c22.45 0 39.13-1.55 50.06-4.68 10.9-3.11 17.92-9.35 21.05-18.71.61-2.49 2.49-3.75 5.61-3.75s4.68 1.26 4.68 3.75c-1.87 18.09-3.75 45.54-5.61 82.33-1.87 36.8-2.81 66.74-2.81 89.81 0 1.26-1.87 1.87-5.61 1.87s-5.61-.61-5.61-1.87c-1.87-48.65-11.86-82.8-29.94-102.44-18.1-19.65-48.04-29.47-89.82-29.47-28.07 0-48.03 1.26-59.88 3.75-11.85 2.49-19.97 7.81-24.32 15.91-4.38 8.11-6.55 21.84-6.55 41.16v431.29c0 19.35 2.17 33.38 6.55 42.11 4.35 8.74 12.77 14.66 25.26 17.77 12.47 3.13 32.12 4.68 58.94 4.68 1.87 0 2.81 1.87 2.81 5.61s-.94 5.61-2.81 5.61c-20.58 0-37.12-.31-49.58-.94l-72.97-.94-70.17.94c-12.49.63-29.63.94-51.46.94-1.26 0-1.87-1.87-1.87-5.61s.61-5.61 1.87-5.61c26.81 0 46.45-1.55 58.94-4.68 12.47-3.11 21.05-9.19 25.73-18.24 4.68-9.04 7.01-22.92 7.01-41.63V269.99c0-19.32-2.2-32.89-6.55-40.7-4.37-7.79-12.48-12.77-24.33-14.97-11.85-2.17-32.13-3.27-60.81-3.27-38.68 0-67.83 9.99-87.48 29.94ZM4355.88 186.72c9.35 0 14.03 2.19 14.03 6.55v509.88c0 18.72 2.02 32.6 6.08 41.63 4.05 9.05 11.7 15.13 22.93 18.24 11.22 3.13 28.68 4.68 52.39 4.68 1.87 0 2.8 1.87 2.8 5.61s-.94 5.61-2.8 5.61c-19.35 0-34.94-.31-46.78-.94l-64.55-.94-68.3.94c-10.61.63-25.26.94-43.97.94-1.87 0-2.8-1.87-2.8-5.61s.94-5.61 2.8-5.61c24.33 0 42.11-1.55 53.33-4.68 11.22-3.11 18.71-9.04 22.45-17.77 3.74-8.73 5.61-22.76 5.61-42.11V245.66l17.78 3.74-420.07 537.95c-1.87 2.49-5.62 3.74-11.23 3.74-9.36 0-14.03-2.19-14.03-6.55V269.98c0-18.71-2.03-32.42-6.08-41.16-4.06-8.73-11.85-14.81-23.38-18.24-11.55-3.42-29.17-5.15-52.87-5.15-1.25 0-1.87-1.87-1.87-5.61s.61-5.61 1.87-5.61l48.65.94c26.19 1.25 47.39 1.87 63.62 1.87 18.09 0 40.84-.61 68.3-1.87l43.97-.94c1.24 0 1.87 1.87 1.87 5.61s-.63 5.61-1.87 5.61c-24.33 0-42.11 1.72-53.33 5.15-11.23 3.43-18.87 9.52-22.92 18.24-4.07 8.74-6.08 22.45-6.08 41.16v463.11l-16.84-3.74 421.01-539.83c1.87-1.87 5.29-2.8 10.29-2.8ZM4524.28 773.32c0-3.75.61-5.61 1.87-5.61 23.7 0 41.01-1.55 51.93-4.68 10.9-3.11 18.39-9.19 22.45-18.24 4.05-9.04 6.08-22.92 6.08-41.63V269.99c0-18.71-2.03-32.42-6.08-41.16-4.07-8.73-11.55-14.81-22.45-18.24-10.92-3.42-28.23-5.15-51.93-5.15-1.25 0-1.87-1.87-1.87-5.61s.61-5.61 1.87-5.61h376.11c5.61 0 8.41 2.8 8.41 8.41l1.87 115.08c0 1.87-1.72 2.97-5.15 3.27-3.43.32-5.14-.47-5.14-2.35-1.87-33.05-11.86-58.78-29.94-77.18-18.1-18.39-42.1-27.6-72.04-27.6h-57.07c-21.84 0-38.05 1.72-48.65 5.15-10.61 3.43-17.94 9.21-21.98 17.31-4.07 8.11-6.08 20.9-6.08 38.36v424.75c0 16.84 2.02 29.47 6.08 37.89 4.05 8.42 11.07 14.2 21.05 17.31 9.97 3.13 25.57 4.68 46.78 4.68h74.85c29.93 0 54.87-10.6 74.84-31.81 19.96-21.2 33.36-50.52 40.23-87.94 0-1.24 1.24-1.87 3.74-1.87 1.87 0 3.58.47 5.15 1.41 1.55.94 2.34 1.72 2.34 2.34-5.61 39.3-8.42 80.46-8.42 123.5 0 5-1.09 8.58-3.27 10.76-2.19 2.2-6.08 3.27-11.7 3.27h-392c-1.25 0-1.87-1.87-1.87-5.61ZM4845.65 502c-13.42-11.84-35.72-17.77-66.89-17.77h-140.34v-19.65h143.14c29.94 0 51.3-4.98 64.09-14.97 12.77-9.96 19.18-26.81 19.18-50.52 0-1.24 1.87-1.87 5.61-1.87s5.61.63 5.61 1.87l-.94 75.78c0 18.09.31 31.81.94 41.16l.94 44.91c0 1.26-1.87 1.87-5.61 1.87s-5.61-.61-5.61-1.87c0-27.44-6.71-47.08-20.12-58.94Z"/><path d="M1221.22 478.53c-65.35 0-118.32-52.97-118.32-118.32 0 65.35-52.97 118.32-118.32 118.32 65.35 0 118.32 52.97 118.32 118.32 0-65.35 52.97-118.32 118.32-118.32Z"/></svg>